<?xml version="1.0" encoding="UTF-8"?>
<!-- Generator: Adobe Illustrator 24.0.1, SVG Export Plug-In . SVG Version: 6.00 Build 0)  -->
<svg version="1.1" id="Layer_1" xmlns="http://www.w3.org/2000/svg" xmlns:xlink="http://www.w3.org/1999/xlink" x="0px" y="0px" viewBox="0 0 240 50" style="enable-background:new 0 0 240 50;" xml:space="preserve">
<style type="text/css">
	.st0{fill-rule:evenodd;clip-rule:evenodd;fill:#9C2135;}
	.st1{fill:#FFFFFF;}
	.st2{fill:#FFFFFF;}
	.st3{fill:#135740;}
	.st4{fill:#9C2135;}
	.st5{fill-rule:evenodd;clip-rule:evenodd;fill:#FFFFFF;}
	.st6{fill-rule:evenodd;clip-rule:evenodd;fill:#D62427;}
</style>
<g>
	<g>
		<path class="st0" d="M33.95,47.23c0,0.78,0,1.51,0,2.27c-0.77,0-1.49,0-2.26,0c-0.01-0.19-0.03-0.36-0.03-0.53    c-0.01-1.92-0.02-3.85-0.04-5.78c-0.01-0.67,0.11-1.35-0.41-1.99c0.22-0.01,0.37-0.03,0.51-0.03c2.28,0,4.56,0.02,6.83-0.01    c1.56-0.02,2.71,1.1,2.96,2.23c0.15,0.66,0.13,1.31-0.08,1.95c-0.26,0.77-0.79,1.29-1.58,1.64c0.58,0.86,1.24,1.61,1.86,2.46    c-0.11,0.03-0.18,0.06-0.26,0.06c-0.63,0-1.26-0.01-1.9,0.01c-0.24,0-0.37-0.1-0.5-0.28c-0.4-0.58-0.82-1.15-1.21-1.74    c-0.16-0.23-0.34-0.32-0.62-0.32c-0.95,0.02-1.91,0.01-2.87,0.01C34.25,47.21,34.14,47.22,33.95,47.23 M33.99,45.46    c0.89,0,1.72,0,2.56,0c0.57,0,1.15,0.01,1.72-0.01c0.67-0.02,1.05-0.42,1.1-1.08c0.07-0.91-0.37-1.39-1.28-1.39    c-1.25-0.01-2.5,0-3.75,0c-0.11,0-0.23,0.02-0.36,0.03C33.99,43.83,33.99,44.61,33.99,45.46z"/>
		<path class="st0" d="M85.39,49.53c-0.69,0-1.35,0.01-2-0.01c-0.13-0.01-0.27-0.16-0.38-0.27c-1.21-1.22-2.41-2.45-3.61-3.68    c-0.42-0.43-0.84-0.86-1.27-1.29c-0.1-0.1-0.21-0.2-0.39-0.37c-0.03,1.91,0.01,3.73-0.02,5.59c-0.75,0-1.46,0-2.23,0    c-0.01-0.18-0.02-0.35-0.02-0.51c0-1.94,0-3.88,0-5.82c0-0.19,0.01-0.38,0-0.57c-0.02-0.5,0.08-1.05-0.51-1.38    c0.03-0.02,0.05-0.04,0.08-0.06c0.07-0.01,0.13-0.03,0.2-0.03c0.73,0,1.47,0.01,2.2-0.01c0.22-0.01,0.35,0.11,0.49,0.25    c0.95,0.97,1.89,1.93,2.84,2.89c0.72,0.73,1.44,1.47,2.16,2.2c0.1,0.1,0.21,0.19,0.36,0.33c0.09-0.52,0.04-0.98,0.04-1.44    c0.01-0.47,0-0.94,0-1.41c0-0.45,0-0.91,0-1.37c0-0.47,0-0.93,0-1.42c0.71,0,1.38,0,2.07,0C85.39,43.94,85.39,46.7,85.39,49.53"/>
		<path class="st0" d="M97.12,45.1c0,1.04,0.01,2.01,0,2.98c0,0.17-0.05,0.35-0.1,0.52c-0.12,0.41-0.38,0.7-0.8,0.8    c-0.36,0.08-0.72,0.13-1.09,0.14c-1.73,0.01-3.47,0.01-5.2,0c-0.36,0-0.73-0.06-1.09-0.14c-0.4-0.09-0.68-0.36-0.77-0.76    c-0.08-0.34-0.15-0.69-0.15-1.04c-0.02-1.5-0.01-3,0-4.5c0-0.32,0.05-0.64,0.12-0.96c0.1-0.49,0.42-0.8,0.92-0.9    c0.24-0.05,0.49-0.1,0.74-0.1c1.9-0.01,3.79,0,5.69,0c0.12,0,0.24,0,0.35,0.02c0.92,0.11,1.32,0.53,1.4,1.45    c0.02,0.19,0,0.38,0,0.63c-0.7,0.15-1.4,0.3-2.15,0.46c-0.02-0.3-0.03-0.56-0.04-0.86c-0.11-0.01-0.23-0.04-0.34-0.04    c-1.29,0-2.59,0-3.88,0c-0.52,0-0.65,0.13-0.65,0.65c0,1.12,0,2.23,0,3.35c0,0.13,0,0.27,0.03,0.39c0.08,0.34,0.31,0.56,0.64,0.56    c1.38,0.01,2.76,0,4.18,0c0.06-0.44,0.02-0.86,0.03-1.33c-0.35-0.02-0.68-0.06-1.01-0.04c-0.47,0.04-0.74-0.15-0.87-0.59    c-0.07-0.23-0.19-0.45-0.3-0.7C94.24,45.1,95.66,45.1,97.12,45.1"/>
		<path class="st0" d="M66.92,43.86c-0.76,0.14-1.46,0.27-2.22,0.4c0-0.49,0-0.92,0-1.39c-0.17-0.01-0.29-0.04-0.42-0.04    c-1.26,0-2.53,0-3.79,0c-0.07,0-0.15,0-0.22,0.01c-0.32,0.03-0.46,0.16-0.46,0.48c-0.01,1.25-0.01,2.5,0.01,3.75    c0.01,0.47,0.29,0.74,0.75,0.75c1.32,0.01,2.64,0,3.97,0c0.03,0,0.05-0.02,0.14-0.05c0-0.5,0-1.02,0-1.59    c0.76,0.16,1.46,0.31,2.2,0.47c0,0.67,0.07,1.33-0.11,1.97c-0.12,0.43-0.39,0.73-0.83,0.83c-0.33,0.07-0.66,0.13-1,0.14    c-1.78,0.01-3.55,0.02-5.33,0c-0.36,0-0.73-0.08-1.08-0.16c-0.37-0.09-0.62-0.35-0.71-0.71c-0.09-0.35-0.15-0.72-0.16-1.08    c-0.02-1.5-0.02-3,0-4.49c0-0.35,0.07-0.7,0.15-1.04c0.09-0.4,0.37-0.67,0.77-0.77c0.34-0.08,0.69-0.15,1.04-0.15    c1.78-0.02,3.55-0.01,5.33,0c0.28,0,0.56,0.04,0.83,0.09c0.56,0.11,0.94,0.43,1.02,1.01C66.87,42.78,66.88,43.3,66.92,43.86"/>
		<path class="st0" d="M44.01,49.54c0.12-0.24,0.19-0.38,0.26-0.52c1.11-2.05,2.23-4.1,3.35-6.15c0.06-0.12,0.13-0.23,0.19-0.35    c0.22-0.39,0.39-0.79,0.18-1.31c1.05-0.03,2.05-0.03,3.07,0c1.52,2.75,3.03,5.48,4.56,8.26c-0.12,0.03-0.2,0.06-0.28,0.06    c-0.6,0-1.2,0-1.81,0.01c-0.2,0-0.32-0.07-0.42-0.25c-0.23-0.46-0.48-0.9-0.72-1.35c-1.79,0-3.55,0-5.34,0    c-0.22,0.43-0.46,0.86-0.66,1.29c-0.11,0.24-0.26,0.31-0.51,0.31C45.29,49.53,44.69,49.54,44.01,49.54 M51.5,46.2    c-0.58-1.15-1.12-2.24-1.74-3.38c-0.61,1.17-1.18,2.25-1.77,3.38C49.18,46.2,50.29,46.2,51.5,46.2z"/>
		<path class="st0" d="M72.3,49.51c-0.74,0-1.46,0-2.23,0c0-0.19,0-0.36,0-0.53c-0.01-1.95-0.02-3.9-0.03-5.86    c-0.01-0.64,0.09-1.3-0.38-1.85c0.37-0.1,2.17-0.12,2.65-0.03C72.3,43.97,72.3,46.71,72.3,49.51"/>
		<path class="st1" d="M1.47,32.71c-0.1,0-0.19-0.05-0.23-0.12c-0.05-0.09-0.04-0.2,0.02-0.32l0.63-1.1    c0.1-0.18,0.32-0.32,0.51-0.32h124.46c0.1,0,0.19,0.04,0.23,0.12c0.05,0.09,0.04,0.2-0.02,0.32l-0.63,1.1    c-0.1,0.18-0.32,0.32-0.51,0.32H1.47"/>
		<path class="st2" d="M126.86,30.97c0.14,0,0.19,0.12,0.11,0.26l-0.63,1.1c-0.08,0.14-0.26,0.26-0.41,0.26H1.48    c-0.14,0-0.19-0.12-0.11-0.26L2,31.23c0.08-0.14,0.26-0.26,0.41-0.26H126.86 M126.86,30.73H2.4c-0.23,0-0.49,0.16-0.61,0.38    l-0.63,1.1c-0.09,0.15-0.1,0.31-0.02,0.44c0.07,0.12,0.19,0.18,0.34,0.18h124.46c0.23,0,0.49-0.16,0.61-0.38l0.63-1.1    c0.09-0.15,0.1-0.31,0.02-0.44C127.14,30.8,127.01,30.73,126.86,30.73z"/>
		<path class="st3" d="M42.61,32.33c-0.08,0.14-0.26,0.26-0.41,0.26H1.48c-0.14,0-0.19-0.12-0.11-0.26L2,31.23    c0.08-0.14,0.26-0.26,0.41-0.26h40.72c0.14,0,0.19,0.12,0.11,0.26L42.61,32.33"/>
		<path class="st4" d="M126.34,32.33c-0.08,0.14-0.26,0.26-0.41,0.26H85.21c-0.14,0-0.19-0.12-0.11-0.26l0.63-1.1    c0.08-0.14,0.26-0.26,0.41-0.26h40.72c0.14,0,0.19,0.12,0.11,0.26L126.34,32.33"/>
		<path class="st5" d="M83.87,11.98c0.77-0.22,1.5-0.44,2.23-0.63c1-0.25,2.01-0.48,3.03-0.69c0.27-0.06,0.55-0.06,0.83-0.03    c0.54,0.05,0.77,0.3,0.81,0.85c0.01,0.08,0.02,0.17,0.03,0.31c0.28-0.07,0.53-0.12,0.78-0.19c0.98-0.28,1.96-0.58,2.94-0.85    c0.36-0.1,0.75-0.14,1.12-0.15c0.7-0.02,0.95,0.26,0.95,0.95c0,0.07,0,0.14,0,0.26c0.24-0.06,0.44-0.12,0.65-0.18    c1.21-0.32,2.42-0.65,3.64-0.97c0.33-0.09,0.67-0.09,0.99,0.05c0.34,0.15,0.52,0.41,0.44,0.77c-0.07,0.31-0.18,0.63-0.36,0.88    c-0.39,0.54-0.84,1.05-1.27,1.56c-0.37,0.45-0.76,0.89-1.12,1.35c-0.12,0.16-0.21,0.35-0.28,0.54c-0.08,0.24-0.01,0.37,0.25,0.4    c0.27,0.03,0.56,0.04,0.83,0.01c0.74-0.08,1.46-0.28,2.14-0.59c0.17-0.08,0.28-0.17,0.34-0.36c0.71-2.08,2.19-3.44,4.1-4.4    c1.08-0.54,2.22-0.91,3.45-0.87c0.29,0.01,0.58,0.07,0.85,0.17c0.48,0.18,0.64,0.56,0.52,1.06c-0.14,0.59-0.48,1.06-0.9,1.48    c-0.63,0.62-1.36,1.11-2.16,1.49c-0.87,0.41-1.77,0.75-2.66,1.13c-0.05,0.02-0.11,0.04-0.18,0.07c0.09,0.29,0.32,0.46,0.54,0.61    c0.45,0.3,0.95,0.45,1.48,0.49c1.04,0.09,2.03-0.14,3-0.51c0.05-0.02,0.11-0.05,0.16-0.07c0.58-0.17,0.94-0.48,1.15-1.1    c0.32-0.96,1.03-1.69,1.79-2.34c1.36-1.16,2.89-1.97,4.65-2.34c0.62-0.13,1.24-0.18,1.87-0.06c0.96,0.19,1.57,0.72,1.76,1.71    c0.01,0.06,0.03,0.11,0.05,0.16c1.23-0.13,2.39-1.21,2.54-2.4c0.38-0.08,0.78-0.04,1.2-0.02c0.01,0.35-0.13,0.61-0.26,0.86    c-0.62,1.19-1.61,1.96-2.83,2.42c-0.6,0.22-1.02,0.52-1.34,1.1c-0.57,1.02-1.49,1.75-2.45,2.41c-1.05,0.71-2.17,1.26-3.41,1.54    c-0.65,0.14-1.3,0.2-1.96,0.07c-0.87-0.17-1.49-0.64-1.85-1.45c-0.02-0.04-0.04-0.07-0.08-0.15c-0.17,0.08-0.34,0.15-0.51,0.23    c-1.25,0.57-2.54,1.04-3.89,1.3c-0.85,0.16-1.71,0.23-2.57,0.07c-0.86-0.17-1.55-0.59-2-1.36c-0.03-0.05-0.07-0.09-0.11-0.15    c-0.68,0.25-1.35,0.5-2.02,0.73c-1.16,0.4-2.33,0.77-3.56,0.88c-0.39,0.03-0.79,0.02-1.17-0.06c-0.75-0.16-1.06-0.93-0.63-1.57    c0.32-0.49,0.7-0.94,1.06-1.39c0.33-0.41,0.69-0.8,1.02-1.21c0.15-0.19,0.3-0.4,0.4-0.62c0.13-0.28,0.03-0.44-0.28-0.5    c-0.11-0.02-0.24-0.02-0.35,0c-0.47,0.11-0.94,0.2-1.4,0.35c-0.18,0.06-0.35,0.21-0.47,0.36c-1.14,1.35-2.28,2.71-3.4,4.07    c-0.34,0.42-0.75,0.62-1.29,0.59c-0.57-0.03-1.14,0-1.71-0.01c-0.17,0-0.36,0.02-0.46-0.23c0.09-0.13,0.17-0.3,0.29-0.44    c0.93-1.11,1.86-2.22,2.79-3.33c0.19-0.23,0.39-0.48,0.53-0.75c0.24-0.44,0.08-0.68-0.41-0.67c-0.67,0.01-1.28,0.26-1.89,0.51    c-0.13,0.06-0.23,0.22-0.33,0.34c-1.11,1.32-2.22,2.64-3.31,3.97c-0.36,0.43-0.77,0.63-1.33,0.6c-0.55-0.03-1.11-0.01-1.67-0.01    c-0.17,0-0.36,0.02-0.47-0.25c0.2-0.26,0.42-0.55,0.65-0.82c0.88-1.06,1.77-2.1,2.64-3.16c0.11-0.13,0.21-0.28,0.28-0.44    c0.15-0.37,0-0.62-0.39-0.64c-0.29-0.02-0.58,0-0.87,0.04c-0.22,0.02-0.43,0.1-0.64,0.14c-0.5,0.1-0.87,0.31-1.12,0.83    c-0.37,0.79-1.02,1.38-1.69,1.93c-1.27,1.04-2.68,1.82-4.29,2.19c-0.63,0.15-1.27,0.19-1.91,0.08c-0.76-0.14-1.35-0.52-1.75-1.19    c-0.04-0.06-0.08-0.12-0.14-0.2c-0.4,0.15-0.79,0.31-1.19,0.44c-1.4,0.48-2.82,0.88-4.3,0.95c-0.42,0.02-0.85-0.01-1.26-0.11    c-0.69-0.17-0.92-0.79-0.55-1.4c0.15-0.25,0.35-0.47,0.54-0.69c0.66-0.76,1.33-1.52,1.98-2.29c0.26-0.31,0.5-0.65,0.73-0.99    c0.12-0.18,0.19-0.38,0.32-0.65c-0.22,0.02-0.36,0.03-0.49,0.05c-1.1,0.2-1.99-0.13-2.64-1.05c-0.02-0.02-0.04-0.04-0.09-0.08    c-0.07,0.08-0.15,0.15-0.21,0.24c-1.08,1.47-2.2,2.92-3.52,4.19c-1.06,1.02-2.24,1.88-3.64,2.38c-1.74,0.62-3.47,0.53-5.2-0.03    c-0.36-0.12-0.72-0.26-1.06-0.4c-0.49-0.2-0.51-0.3-0.11-0.64c0.61-0.53,1.21-1.06,1.81-1.59c0.2-0.17,0.38-0.36,0.57-0.54    c0.34-0.33,0.34-0.33,0.74-0.11c0.69,0.39,1.43,0.59,2.23,0.5c0.72-0.08,1.39-0.34,2.01-0.7c0.92-0.53,1.72-1.2,2.48-1.94    c1.4-1.36,2.62-2.87,3.87-4.36c1.02-1.22,2.06-2.43,3.12-3.62c0.44-0.49,0.95-0.91,1.42-1.36c0.08-0.08,0.17-0.16,0.32-0.3    c-0.6-0.12-1.12-0.26-1.65-0.33c-2.09-0.28-4.14-0.1-6.13,0.61c-1.23,0.44-2.38,1.05-3.36,1.93C59.8,5.05,59.42,5.49,59.12,6    c-1.18,2.03,0.44,3.75,2.1,3.82c0.26,0.01,0.51,0.02,0.84,0.03c-0.08,0.14-0.1,0.24-0.17,0.3c-0.61,0.56-1.23,1.13-1.85,1.68    c-0.08,0.07-0.24,0.11-0.36,0.1c-0.9-0.11-1.75-0.37-2.46-0.94c-1-0.81-1.23-1.87-0.92-3.08c0.3-1.18,0.97-2.15,1.79-3.02    c1.17-1.26,2.57-2.2,4.12-2.92c2.55-1.18,5.23-1.63,8.02-1.42c0.93,0.07,1.85,0.27,2.77,0.44c0.2,0.04,0.37,0.05,0.53-0.09    c0.31-0.26,0.66-0.34,1.06-0.31c0.33,0.03,0.66,0.01,0.99,0.01c0.01,0.03,0.03,0.06,0.04,0.1c-0.37,0.26-0.74,0.53-1.16,0.82    c0.17,0.1,0.29,0.18,0.42,0.25c0.87,0.49,1.57,1.17,2.05,2.05c0.89,1.63,0.7,3.48-0.51,4.9c-0.88,1.03-2.01,1.68-3.25,2.16    c-0.5,0.19-1.01,0.36-1.55,0.54c0.25,0.75,0.01,1.41-0.3,2.07c-0.21,0.43-0.44,0.86-0.65,1.29c-0.1,0.2-0.19,0.4-0.26,0.6    c-0.17,0.53,0.03,0.82,0.59,0.85c0.19,0.01,0.39,0.02,0.57-0.03c0.56-0.16,1.11-0.35,1.66-0.53c0.16-0.05,0.26-0.15,0.31-0.33    c0.29-1.01,0.9-1.83,1.65-2.54c1.42-1.34,3.08-2.25,5-2.66c0.6-0.13,1.21-0.18,1.83-0.06c0.96,0.18,1.59,0.69,1.78,1.68    C83.8,11.81,83.84,11.88,83.87,11.98 M72.58,3.04c-1.91,1.86-3.43,3.98-4.94,6.16c1.28-0.3,2.37-0.01,3.27,0.9    c0.84-0.39,1.56-0.89,2.19-1.5c0.49-0.47,0.9-1,1.16-1.63c0.42-1.01,0.28-1.94-0.39-2.8C73.52,3.72,73.1,3.37,72.58,3.04z     M121.15,12.06c0.01-0.61-0.28-0.93-0.85-1.01c-0.41-0.06-0.82-0.03-1.21,0.12c-1.56,0.61-2.74,1.65-3.55,3.1    c-0.13,0.24-0.22,0.51-0.27,0.78c-0.1,0.58,0.21,0.99,0.78,1.11c0.46,0.1,0.9-0.01,1.33-0.16c0.69-0.24,1.27-0.64,1.85-1.07    c0.27-0.21,0.43-0.44,0.47-0.79c0.08-0.68,0.45-1.17,1.04-1.47C121.07,12.51,121.18,12.3,121.15,12.06z M81.45,11.01    c-0.15,0.01-0.3,0.02-0.44,0.04c-0.14,0.03-0.28,0.07-0.42,0.12c-1.55,0.61-2.73,1.66-3.54,3.12c-0.13,0.24-0.21,0.52-0.25,0.78    c-0.09,0.57,0.2,0.95,0.76,1.08c0.37,0.09,0.73,0.02,1.08-0.07c0.74-0.2,1.37-0.62,1.99-1.06c0.34-0.25,0.57-0.53,0.59-0.96    c0-0.08,0.04-0.17,0.07-0.25c0.17-0.55,0.56-0.91,1.04-1.19c0.12-0.07,0.25-0.17,0.29-0.29c0.22-0.67-0.12-1.19-0.83-1.29    C81.68,11.02,81.56,11.02,81.45,11.01z M105.81,14.52c0.49-0.19,0.93-0.33,1.35-0.51c0.93-0.41,1.8-0.91,2.43-1.72    c0.23-0.31,0.41-0.67,0.55-1.03c0.11-0.26-0.03-0.39-0.31-0.34c-1.12,0.19-2.13,0.6-2.93,1.43    C106.35,12.93,105.97,13.61,105.81,14.52z M69.7,10.62c-0.4-0.79-1.72-0.98-2.23-0.35C67.99,10.91,68.9,11.06,69.7,10.62z"/>
		<path class="st5" d="M52.54,14.05c-0.25,0.29-0.48,0.62-0.76,0.88c-1.48,1.4-3.21,2.32-5.2,2.75c-0.78,0.17-1.58,0.27-2.38,0.32    c-0.5,0.03-1.02-0.06-1.52-0.16c-0.47-0.09-0.87-0.34-1.08-0.75c-0.7,0.22-1.34,0.47-2,0.63c-0.88,0.23-1.78,0.29-2.69,0.08    c-0.84-0.2-1.44-0.63-1.59-1.54c0-0.03-0.03-0.05-0.08-0.11c-1.41,0.17-2.85,0.18-4.31-0.12c-0.42,0.46-0.85,0.92-1.27,1.39    c-1.4,1.55-2.81,3.09-4.38,4.48c-1.32,1.16-2.72,2.22-4.32,2.97c-1.07,0.5-2.19,0.82-3.37,0.85c-1.61,0.03-3.03-0.49-4.37-1.5    c0.33-0.28,0.64-0.54,0.92-0.78c0.45,0.26,0.85,0.55,1.29,0.74c1.2,0.5,2.4,0.4,3.57-0.12c0.95-0.43,1.77-1.03,2.47-1.78    c1.84-1.96,3.66-3.94,5.48-5.92c0.04-0.04,0.07-0.09,0.14-0.2c-0.16,0.04-0.27,0.06-0.37,0.09c-1.68,0.55-3.36,1.09-5.1,1.4    c-0.7,0.12-1.42,0.16-2.13,0.22c-0.23,0.02-0.47-0.03-0.69-0.07c-0.7-0.13-0.94-0.41-0.98-1.14c-0.49,0.16-0.97,0.32-1.45,0.47    c-1.17,0.37-2.35,0.7-3.58,0.79c-0.39,0.03-0.79,0.01-1.18-0.04c-0.67-0.1-0.93-0.39-1-1.1c-0.11,0.04-0.21,0.07-0.31,0.11    c-1.32,0.57-2.68,0.99-4.13,1.09c-0.59,0.04-1.17-0.02-1.73-0.22c-1.54-0.55-2.38-2.05-2.11-3.71c0.24-1.46,0.89-2.75,1.77-3.92    C7,6.29,10.82,3.85,15.54,2.84c0.79-0.17,1.62-0.23,2.43-0.28c1.03-0.07,2.17,0.11,3.3,0.71c0.03-0.01,0.07-0.01,0.08-0.02    c0.38-0.48,0.89-0.6,1.48-0.56c0.7,0.04,1.4,0.01,2.1,0.01c0.1,0,0.21-0.01,0.31,0.01c0.19,0.03,0.24,0.14,0.14,0.31    c-0.06,0.1-0.14,0.19-0.21,0.28c-1.47,1.72-2.94,3.45-4.41,5.17c-1.58,1.86-3.15,3.73-4.72,5.6c-0.23,0.28-0.43,0.59-0.63,0.89    c-0.06,0.08-0.11,0.17-0.15,0.27c-0.08,0.2-0.21,0.41-0.06,0.62c0.16,0.21,0.41,0.14,0.61,0.11c0.24-0.03,0.49-0.09,0.72-0.18    c0.88-0.36,1.75-0.72,2.62-1.11c0.17-0.08,0.32-0.25,0.45-0.4c1.51-1.81,3.08-3.56,4.76-5.21c1.73-1.7,3.56-3.3,5.6-4.62    c0.96-0.62,1.95-1.17,3.05-1.51c0.46-0.14,0.94-0.23,1.42-0.21c0.66,0.03,0.92,0.38,0.72,1.02c-0.09,0.29-0.22,0.58-0.4,0.82    c-0.49,0.65-0.98,1.31-1.56,1.89c-2.04,2.06-4.36,3.76-7,4.97c-0.41,0.19-0.84,0.35-1.26,0.5c-0.2,0.07-0.35,0.17-0.48,0.35    c-0.61,0.87-1.24,1.74-1.86,2.61c-0.11,0.15-0.21,0.32-0.28,0.49c-0.11,0.28-0.02,0.43,0.27,0.53c0.4,0.13,0.79,0.03,1.17-0.05    c1.29-0.25,2.53-0.69,3.77-1.14c0.03-0.01,0.04-0.04,0.09-0.08c-0.06-0.13-0.14-0.26-0.19-0.41c-0.25-0.63,0.11-1.14,0.78-1.08    c0.27,0.02,0.53,0.14,0.79,0.24c0.15,0.06,0.28,0.15,0.44,0.25c0.11-0.12,0.22-0.24,0.33-0.36c1.63-1.85,3.31-3.67,5.11-5.36    c1.6-1.5,3.28-2.91,5.2-4c0.92-0.52,1.88-0.94,2.93-1.13c0.28-0.05,0.58-0.07,0.87-0.04c0.51,0.06,0.75,0.4,0.61,0.9    c-0.08,0.31-0.2,0.62-0.38,0.87c-0.45,0.62-0.91,1.26-1.45,1.81c-1.88,1.95-4.01,3.57-6.43,4.81c-0.54,0.28-1.13,0.47-1.69,0.72    c-0.14,0.06-0.3,0.14-0.39,0.25c-0.71,0.87-1.41,1.75-2.11,2.63c-0.03,0.03-0.04,0.08-0.07,0.15c1.1,0.36,2.23,0.4,3.38,0.46    c0.05-0.1,0.09-0.19,0.12-0.28c0.46-1.27,1.32-2.23,2.34-3.06c1.35-1.09,2.89-1.75,4.61-1.96c0.58-0.07,1.17-0.06,1.74,0.07    c0.57,0.13,1.07,0.39,1.44,0.94c0.49-0.52,1.12-0.53,1.76-0.51c0.41,0.01,0.82-0.01,1.23,0.01c0.14,0.01,0.29,0.07,0.51,0.12    c-0.22,0.29-0.37,0.51-0.54,0.73c-0.88,1.09-1.77,2.18-2.65,3.27c-0.22,0.27-0.4,0.58-0.58,0.87c-0.07,0.12-0.12,0.27-0.16,0.41    c-0.13,0.52,0.07,0.81,0.6,0.81c0.35,0,0.7-0.04,1.04-0.12c1.27-0.33,2.44-0.9,3.46-1.74c0.27-0.22,0.5-0.49,0.73-0.75    c0.12-0.15,0.24-0.23,0.44-0.22c0.35,0.01,0.69,0,1.04,0C52.5,13.97,52.52,14.01,52.54,14.05 M17.98,3.62    c0,0.02-0.01,0.04-0.01,0.06c-0.13,0-0.26-0.01-0.39,0c-0.09,0-0.17,0.03-0.26,0.04c-1.23,0.18-2.36,0.64-3.45,1.21    C11.86,6,10.13,7.43,8.58,9.08c-0.84,0.9-1.62,1.85-2.13,2.98C6.24,12.5,6.08,12.98,6,13.47c-0.12,0.7,0.1,1.31,0.72,1.71    c0.58,0.37,1.24,0.55,1.92,0.47c1.61-0.19,2.97-0.96,4.03-2.11c2.08-2.27,4.06-4.64,6.08-6.97c0.35-0.41,0.66-0.85,0.85-1.37    c0.21-0.6,0-1.12-0.6-1.34C18.67,3.73,18.32,3.69,17.98,3.62z M43.36,10.98c-0.23,0.04-0.46,0.07-0.68,0.14    c-1.51,0.47-2.68,1.41-3.55,2.71c-0.24,0.36-0.42,0.77-0.53,1.19c-0.24,0.96,0.4,1.44,1.25,1.33c0.43-0.05,0.85-0.2,1.25-0.36    c0.42-0.17,0.84-0.35,1.13-0.72c0.71-0.89,1.42-1.78,2.12-2.68c0.12-0.15,0.19-0.37,0.19-0.56C44.57,11.37,44.1,10.97,43.36,10.98    z M35.24,10.35c0.02,0.03,0.03,0.06,0.05,0.09c0.46-0.08,0.88-0.28,1.29-0.49c1.89-0.96,3.47-2.3,4.85-3.89    c0.26-0.3,0.46-0.67,0.65-1.03c0.09-0.16,0.13-0.36,0.15-0.54c0.03-0.35-0.15-0.48-0.49-0.36c-0.11,0.04-0.21,0.1-0.31,0.17    c-0.29,0.2-0.58,0.39-0.86,0.6c-1.46,1.13-2.74,2.45-3.96,3.83C36.16,9.26,35.71,9.81,35.24,10.35z M25.9,10.36    c0.02,0.03,0.04,0.07,0.05,0.1c0.23-0.08,0.47-0.14,0.69-0.24c2.23-0.97,4.04-2.49,5.59-4.33c0.27-0.33,0.44-0.75,0.62-1.15    c0.09-0.19,0.14-0.45-0.07-0.61c-0.19-0.14-0.4-0.03-0.57,0.08c-0.34,0.22-0.68,0.45-1.01,0.7c-1.47,1.14-2.75,2.48-3.98,3.88    C26.78,9.31,26.34,9.84,25.9,10.36z"/>
	</g>
	<g>
		<path class="st6" d="M239,49.59h-69.9V30.15H239V49.59z M179.8,33c3.74,0,6.78,3.21,6.78,6.95c0,3.75-3.03,6.78-6.78,6.78    c-3.92,0-6.95-3.03-6.95-6.78C172.85,36.21,175.88,33,179.8,33z M179.8,37.28c1.43,0,2.67,1.07,2.67,2.67    c0,1.43-1.25,2.67-2.67,2.67c-1.6,0-2.85-1.25-2.85-2.67C176.95,38.35,178.2,37.28,179.8,37.28z M199.42,46.38l-3.39-5.35    c1.43-0.18,2.5-1.43,2.5-3.21c0-2.85-1.78-4.46-5.17-4.46H188v13.02h4.1V42.1l2.14,4.28H199.42z M192.1,39.25v-2.68h0.71    c1.07,0,1.61,0.54,1.61,1.43c0,0.89-0.54,1.43-1.61,1.43h-0.71V39.25z M220.46,46.38v-3.57h-5.53v-1.61h2.67v-3.03h-2.67v-1.61    h4.99v-3.21h-9.09v13.02H220.46z M234.19,46.38V33.36h-4.1v4.28c0,0.18,0,0.18,0,0.36c0,0.54,0.18,1.25,0.18,2.14l-4.46-6.78    h-3.92v13.02h4.1v-4.82c0-0.53,0-1.25-0.18-1.96l4.46,6.78H234.19z M209.4,46.38v-3.57h-4.1v-9.45h-4.64v13.02H209.4z"/>
		<path class="st6" d="M221.88,27.02c2.23-2.23,2.23-5.89,0-8.12l-8.86-8.86c-1.81-1.81-4.22-2.84-6.78-2.84h-0.84    c-3.17,0-5.74,2.57-5.74,5.74c0,1.24,0.37,2.2,1,3.24c-0.24-1.69,1.09-3.25,2.8-3.25c-0.01,0,1.78,0,2.74,0    c1,0,1.99,0.41,2.7,1.11L221.88,27.02 M216.58,11.38c1.53,0,2.77-1.24,2.77-2.77c0-0.5-0.13-0.99-0.39-1.42h-4.76    c-0.26,0.43-0.39,0.92-0.39,1.42C213.81,10.14,215.05,11.38,216.58,11.38z M228.57,4.08l-0.5-0.49c-1.99-1.97-4.65-3.09-7.45-3.09    l-7.59,0.01c-3.32,0-6.15,2.45-6.62,5.73h14.22c1.26,0,2.47,0.5,3.36,1.39l4.69,4.69c1.98,1.98,5.65,2.25,8.02-0.1L228.57,4.08z"/>
	</g>
	<g>
		<rect x="147.74" y="0.52" class="st2" width="0.5" height="49.04"/>
	</g>
</g>
</svg>