<?xml version="1.0" encoding="utf-8"?>
<!-- Generator: Adobe Illustrator 25.0.1, SVG Export Plug-In . SVG Version: 6.00 Build 0)  -->
<svg version="1.0" id="katman_1" xmlns="http://www.w3.org/2000/svg" xmlns:xlink="http://www.w3.org/1999/xlink" x="0px" y="0px"
	 viewBox="0 0 3256.8 2283.7" style="enable-background:new 0 0 3256.8 2283.7;" xml:space="preserve">
<path d="M1403.4,1389.1c136.6-112.7,215.7-280.6,215.6-457.7c0-40,10.6-77.7,29.4-110.1c8.7-15.2,19.3-29.4,31.3-42.1
	c35.9-38.3,84.1-62.6,136.2-68.7l1-0.1c8.2-0.8,18.2-4.3,20.4-5.1c2.7-1.2,5.3-2.7,7.6-4.6v-364c-134,0-253.9,41.9-351.8,113.1
	c-10.6,7.6-20.9,15.7-31,23.9c-136.6,112.7-215.7,280.6-215.6,457.7c0,40-10.6,77.7-29.4,110.1c-8.7,15.2-19.2,29.4-31.3,42.1
	c-41.8,44.8-100.4,70.2-161.6,70.1h-0.4c-122.6,0-222.3-99.8-222.3-222.3S901.3,709,1023.9,709c63.9,0,121.2,26.9,162,70.1
	c29.3-125.5,94-239.9,186.5-329.8c-101.3-73.6-223.3-113.2-348.5-113.1c-328.1,0-595,266.9-595,595s266.9,595,595,595h0.7
	c144.6,0,277-51.8,379.7-138L1403.4,1389.1L1403.4,1389.1z M1906.6,1261.6c-3.4-4.6-7.1-8.8-11.1-12.8
	c-12.9-12.6-28.2-22.3-45.1-28.5c-8.4-3.1-16.4-7.3-23.6-12.5c-8.4-6.3-20.1-17.9-24.4-27.7c-2.2-5.1-8.7-20.7-11.7-25.6
	c-5.1-8.2-18.5-2.2-14.4,8.2c3.6,9,7.9,20.1,9,28.3c1.9,13.9-11.4,18.2-18.8,18.5c-18.5,0.8-29.1,0.8-47.6,3
	c-27.8,3.4-55.8,4.7-83.7,3.8c-33.7,73.7-90.5,149.2-141.9,197.1c97.6,70.9,214.6,110.3,335.2,112.8c16.6,0,16.6,0.3,16.6,0.3
	v-141.1c-9.7,4-20.9,1.2-27.7-6.8c-3.5-3.8-6.6-8-9.2-12.5c-3-5.1-5.5-10.9-8.2-16.6c-5.5-12-6-12.5-19-12l-1.2,0.1
	c-5.8,0-11.2-2.5-15.1-6.8c-9.2-10.5-17.3-21.9-24.2-34c-1.4-1.1,4.1-4.9,6.5-5.1c13.3-2.4,26.9-4.6,40.5-6.8
	c8.4-1.4,14.7,2.4,19.3,9.2c3.3,4.6,5.7,9.8,8.7,14.7c1.4,2.4,2.7,4.9,3.8,7.6c6.3,14.2,17.7,19,32.3,16.9
	c21.7-3,39.7-13.3,54.3-29.9C1921.6,1284.5,1918.3,1276.9,1906.6,1261.6L1906.6,1261.6z M1867.1,1301.3c-4.1,2.2-8.7,3.6-13.3,4.1
	c-8.4,1.1-12.2-1.1-15.7-8.7c-4.1-9-7.9-17.9-8.4-28.8c12.2-3,24.2-5.1,36.2-5.7c5.7,6,8.7,11.1,10.1,17.4
	C1878.3,1288.7,1875.6,1296.6,1867.1,1301.3L1867.1,1301.3z M1942.7,825c20.7,14.4,39.7,30.2,53,52.2c3,5.1,6.8,6.8,10.3,5.1
	c4.9-2.2,4.3-6.8,4.9-10.3c-0.4-10.1-3.3-19.9-8.4-28.5c-12.1-21.4-29.3-39.5-50-52.8c-4.5-2.6-9.2-4.8-14.2-6.5
	c-2.1-0.7-4.3-1.1-6.6-1.1h-0.5c-5.7,0-10.1,2.4-12.8,7.3c-2.7,4.9-2.7,10.1,0.5,14.7c2.3,3.1,4.9,5.8,7.9,8.2
	c4.9,4.1,10.3,7.9,15.7,11.7L1942.7,825z M2175.7,1177.9c-5.7,1.6-11.7,3.8-16.6,7.3c-10.1,7.1-13.6,17.7-11.4,29.6
	c0.8,4.9,3.6,7.1,12.8,7.9c22.3-1.6,27.5-10.6,27.5-29.4c0-1.4-0.3-4.1-0.5-7.1C2186.6,1179.5,2182.2,1176,2175.7,1177.9
	L2175.7,1177.9z"/>
<path d="M1916.3,336.3v352.8l6.8,1.4c5.7,1.4,10.9,3.6,12.5,4.1c3.3,1.4,6.3,3,13.3,7.1c39.7,25.8,82.7,45.1,123.9,68
	c24.8,13.8,49.7,26.9,73.1,43.2c22.8,16.1,44.9,33.2,62.5,54.9c13.6,16.6,25.6,34,33.2,54.1c11.4,30.4,22.6,60.9,33.5,91.6
	c9,25.3,17.1,51.1,28.3,75.5c9.5,21.2,20.4,41.6,34,60.3c19.6,27.5,41.9,47.8,71.8,63.1c0,0,9,4.1,7.3,6
	c-14.2,5.5-20.4,5.7-32.1,1.9c-10.3-3.6-19.6-9.5-27.2-17.4c-6.8-6.5-13-13.6-19.8-20.4c-10.9-10.6-21.7-20.9-32.9-31.3
	c-3.2-2.8-6.9-5-10.9-6.5c-3.9-1.7-8.4,0.2-10,4c-0.5,1.1-0.7,2.4-0.6,3.6v-0.1c0.3,4.2,1.4,8.3,3.3,12c4.1,6.8,9,13.3,13.8,19.6
	c8.2,10.9,16.3,22,25.3,32.3c7.1,8.2,15,15.7,22.8,22.8c5.7,4.9,12,9,17.9,13.6c2.2,1.6,4.1,3.6,7.1,6.5c-3,1.1-4.6,1.9-6.3,2.2
	c-13,1.4-25.3-1.9-37.2-6.8c-13-5.6-25.4-12.7-37-20.9c-7.3-5.1-14.7-10.6-22.3-15.2c-9.8-6-16.1-5.5-24.4,1.9
	c-4.9,4.5-9.4,9.3-13.6,14.4c-7.2,9.1-18.4,14-29.9,13.3c-7.1-0.3-14.1-0.2-21.2,0.3c-17,1.5-33.3,7.2-47.6,16.6
	c-5.1,3.3-10.3,6.8-15.7,9.8c-7,4-14.2,7.5-21.7,10.3c-15,5.1-31.4-2.9-36.5-18c-0.4-1.2-0.8-2.5-1-3.8c-0.8-4.1-0.5-8.4-0.8-12.8
	c0-3.8,0.3-7.6,0-11.4c-0.5-9.2-3.3-11.4-12.5-10.1c-12,1.4-14.7-1.9-10.6-13.3c4.1-11.7,9-22.8,13.3-34.2
	c7.1-18.5,16-36.2,27.2-52.8c5.1-7.9,9.5-16.3,13.9-24.8c2.4-4.9,4.1-10.6,5.5-16.1c1.1-4.9-1.1-9.2-4.6-10.6
	c-4.1-1.6-7.3-0.3-10.3,2.4c-7.6,7.1-15.5,13.8-22.6,21.5c-15.1,15.9-35.5,25.7-57.4,27.5c-6.5,0.8-13,2.2-19.6,3
	c-3.3,0.3-6.5,0-10.1,0c-1.1-5.7,1.4-9.8,2.7-14.2c7.1-22,11.7-44.6,14.2-67.7c2.2-18.5-0.3-36.7-4.3-54.9
	c-0.9-3.7-2.3-7.2-4.3-10.3c-3.3-5.5-10.1-5.7-14.7-1.1c-2.7,2.7-4.2,6.5-4.1,10.3l0.5,15.5c0.3,20.9-1.1,41.6-5.5,62
	c-2.1,8.3-4.5,16.4-7.3,24.4c-3.7,10.2-9.9,19.3-17.9,26.6c-6,5.5-12,10.6-17.7,16.3c-13.3,13.3-15,29.4-3.8,44.6
	c11.4,15.7,22.6,31.5,34.8,46.5c10.1,12.5,15,26.1,15,41.6c0,4.3,0.5,8.4,1.1,12.8c0.5,2.2,1.9,4.1,3.6,7.3c2.7-1.9,5.5-3,6.5-5.1
	c9-16.9,11.7-34.8,8.7-53.5c-1.1-4.6-3-8.9-5.7-12.8c-8.2-12-16.9-23.9-25.3-35.9l-10.9-19.8c11.7-10.6,16.3-9.8,24.8,2.7
	c12.5,18.2,24.2,37,36.2,55.7c6.5,10.6,7.9,21.7,5.5,34c-2.7,12.8-4.6,26.1-7.3,41.9c-3,14.4-5.7,17.4-20.9,17.1
	c-11.1,0-19.3,3.8-24.8,13c-4.9,8.2-12.5,14.4-21.5,17.7l-10.6,4.6v175.1l28.5-0.3c312.3-7.6,565.4-262.8,567.6-577.7
	c0-5.7-0.3-11.4,0-17.1V719.9h176.4l138.4-384.1h-911.4L1916.3,336.3z"/>
<path d="M2210.2,1086c1.4,4.1,3.3,7.9,5.1,11.4c1.9,3.3,5.1,3.6,8.7,3.3c3.8-0.3,6.3-2.4,7.6-5.7c0.8-2.2,0.8-4.6,1.4-7.3
	c-3-19.6-7.3-38.9-23.9-52.5c-16.4-13.5-32-27.9-46.8-43.2c-4.6-3.8-9.2-3.8-14.2-0.3c-1.9,1.4-3.6,3-5.1,4.9
	c-10.1,12.8-16.6,27.5-20.4,43.2c-0.5,2.2-0.5,4.6-0.5,7.1c0.3,6,2.4,9.5,7.1,10.9c4.9,1.4,9.5,0.3,12.5-3.8
	c2.4-3.3,4.6-7.1,7.3-10.3c3-3.8,6.8-5.1,11.1-3.3c3.6,1.4,7.1,2.7,10.3,4.6c7.3,4.9,14.7,10.3,21.7,15.7
	c8.5,6.3,14.8,15.2,17.9,25.3L2210.2,1086z M681.2,1772.9h-17.4v242.2h138.6v-17.4H681.2V1772.9z M2370.3,1803.1
	c-19-19.6-45.3-30.4-72.6-29.9h-110.4v241.9h63.9v-37h46.5l4.3-0.3l22,37.2h74.5l-35.6-60.3c25-20.7,37.5-47,37.5-79.4
	C2400.5,1847.4,2390.4,1823.2,2370.3,1803.1z M2325.2,1902.9c-7.2,7.4-17.2,11.4-27.5,11.1h-46.5v-77.2h46.5
	c10.6,0,19.8,3.8,27.5,11.4c7.6,7.6,11.1,16.6,11.1,27.5C2336.7,1885.9,2332.6,1895.8,2325.2,1902.9z M934.5,1773.2H832.3v241.9
	h17.4v-76.9h84.8c22.6,0,42.1-8.2,58.2-24.2c16-16,24.2-35.6,24.2-58.2c0-22.6-8.2-42.4-24.2-58.2
	C977.5,1781.8,956.4,1773,934.5,1773.2L934.5,1773.2z M980.7,1901.8c-12.1,12.6-28.8,19.6-46.2,19.3h-84.8v-130.2h84.8
	c17.9,0,33.5,6.5,46.2,19s19,28,19,46.2C999.7,1873.8,993.5,1889,980.7,1901.8z M527.9,1773.2h-12l-87,241.9h19l27.7-76.9h104.7
	l27.7,76.9h18.8l-87-242.2h-12L527.9,1773.2z M481.6,1920.8l46.2-128.3l46.2,128.3H481.6L481.6,1920.8z M2447.2,1773.2h63.9v242.2
	h-63.9V1773.2z M1379,1773.2h-12l-87,241.9h18.8l27.7-76.9h104.7l27.7,76.9h18.8l-87-242.2H1379V1773.2z M1332.7,1920.8l46.2-128.3
	l46.2,128.3H1332.7L1332.7,1920.8z M1681.2,1773.2h-228.1l23.1,63.9h59v178h64.1v-178h59L1681.2,1773.2z M2069.9,1906.9
	c0,26.3-21.2,47.6-47.6,47.6c-26.3,0-47.6-21.2-47.6-47.6v-133.8h-63.9v133.8c0,61.4,50,111.4,111.4,111.4
	c61.4,0,111.4-50,111.4-111.4v-133.8h-63.9V1906.9z M1226.4,1920.8h-156.8v-147.9h-17.1v242.2h17.1v-76.9h156.9v76.9h17.4v-242.2
	h-17.4L1226.4,1920.8z M1743.8,1773.2l-87.3,241.9h64.1l10.1-27.7h89.7l10.3,27.7h64.4l-87.3-242.2h-64.1V1773.2z M1751.1,1928.9
	l24.8-74l24.4,74H1751.1z"/>
</svg>
