<?xml version="1.0" encoding="utf-8"?>
<!-- Generator: Adobe Illustrator 24.0.1, SVG Export Plug-In . SVG Version: 6.00 Build 0)  -->
<svg version="1.1" id="Camada_1" xmlns="http://www.w3.org/2000/svg" xmlns:xlink="http://www.w3.org/1999/xlink" x="0px" y="0px"
	 viewBox="0 0 2061 907.3" style="enable-background:new 0 0 2061 907.3;" xml:space="preserve">
<style type="text/css">
	.st0{display:none;opacity:0.2;}
	.st1{display:inline;}
	.st2{fill:#00594f;}
</style>
<g id="Logo">
	<path d="M1047.1,452.4c0,73.5,0.5,187.1,3.3,283.2h0.6c2.8-96.1,3.4-214.8,3.4-288c0-27.1-0.1-164.5-3.4-276.1h-0.6
		C1048.2,248.4,1047.1,348.2,1047.1,452.4z"/>
	<path d="M548,414.3c-97.6,0-248.6,0.5-376.3,3.3v0.6c127.7,2.8,285.4,3.4,382.7,3.4c36,0,218.6-0.1,366.8-3.4v-0.6
		C819.1,415.4,686.5,414.3,548,414.3"/>
	<path d="M879.7,203.4H602.5c-5,0-12-0.1-19.4,7.3c-7,7-4.9,14-16.5,14h-40.4c-11.6,0-9.5-6.9-16.5-14c-7.4-7.4-14.4-7.3-19.4-7.3
		H213c-9.5,0-13.7,8.4-9.1,15.9l5,8.3c2.7,4.6,6.2,5.3,8.8,5.8c2.4,0.5,3.8,0.8,5.7,4l4.4,7.7c3.4,6.3,7.5,7.1,10.5,7.6
		c2.4,0.5,4.5,0.6,7.5,6c3.2,5.8,7.5,13.1,17.6,16.2c0,0,103.5,30.2,103.6,30.2c10.8,3.5,13.5,7.4,16.7,12c1.7,2.4,6.8,11,20.8,14.8
		l98.5,26.6c9.2,2.5,15.7-1,20.2-5l17.9-16.9c4.6-4.3,6.5-4.3,11.1,0l17.9,16.9c4.5,4,10.9,7.5,20.2,5l98.5-26.6
		c14-3.8,19.1-12.4,20.8-14.8c3.2-4.6,5.9-8.5,16.7-12l103.6-30.2c10.1-3,14.4-10.3,17.6-16.2c2.9-5.4,5.1-5.6,7.5-6
		c3-0.6,7.1-1.3,10.5-7.6l4.4-7.7c1.8-3.2,3.3-3.5,5.7-4c2.6-0.5,6.1-1.2,8.8-5.8l5-8.3C893.4,211.8,889.2,203.4,879.7,203.4
		 M213.2,220.6l-3-5c-0.9-1.5-1.5-4.9,2.8-4.9h277.3c5.6,0,11.9-0.1,18,10.5c0.8,1.4,1.7,3,2.9,4.5h-281
		C218.8,225.8,216.6,225.8,213.2,220.6 M393,231.4h306.8v48.1H393V231.4z M235.2,243.2c-2.6-2.6-4.3-8-6.6-11.2l159-0.7v7
		l-134.5,7.8C242.5,246.9,238.2,246.3,235.2,243.2 M256,261.5c-1.5-1.9-2.7-4.1-3.9-6.2c-0.6-1.1-1.2-2-1.8-2.8
		c1.9-0.1,2.3-0.2,5.9-0.4l131.2-8.1v7.5l-103.7,11.1C269.8,264.1,260.3,266.2,256,261.5 M291.5,275.6c-7.6-2.2-14.2-4.1-18.9-5.5
		c12.6-1.5,114.8-12.9,114.8-12.9v8.3L321,276.2C313.3,277.5,304.1,279,291.5,275.6 M337.6,289.1c-6.7-1.9-13.9-4-21-6.1
		c1.9-0.3,3.2-0.5,5.4-0.8c6.7-1.1,65.5-10.9,65.5-10.9v9c0,0-24.6,7-24.7,7C362.6,287.2,347.4,291.8,337.6,289.1 M368.9,298.2
		L368.9,298.2c-1-0.3-5.5-1.6-12.1-3.5c4.3-0.8,7-1.7,7.6-1.9c0.4-0.1,26.8-7.8,26.8-7.8h30l-27.7,12.9
		C384.6,301.3,376.8,300.3,368.9,298.2 M396.5,320.5c-3.3-2.3-5.1-4.8-7-7.5c-1.6-2.3-3.2-4.6-5.8-7c0.6,0,3.4-0.2,6.5-1
		c3.3-0.8,10.5-3.9,10.5-3.9l33.3-16.2h22.2l-43.7,30.9C405.9,320.3,400.6,321.9,396.5,320.5 M429.5,331.2l-21.4-5.8
		c2.9-1.2,5.7-2.8,8-4.3c2.2-1.5-0.3,0.4,50.3-36.2H485l-34.2,35C444.7,326.1,438.1,332.9,429.5,331.2 M463.2,340.4l-20.1-5.4
		c5.5-3.2,10.4-8.6,12.3-10.5l38-39.4H510l-30.3,47.3C474.8,339.8,469.1,341.4,463.2,340.4 M498.4,349.9l-21.4-5.8
		c1-0.7,4.8-3,8.4-8.8l31.7-50.4h14.4c0,0-18.6,54.6-19.9,57.3C507.9,350.3,503.6,350.9,498.4,349.9 M574.7,348.2L557,331.4
		c-7.4-7-13.7-7-21.2,0l-17.7,16.8c-1.4,1.2-2.7,2.1-4.1,2.8c3.3-4.1,5.2-9.8,6.4-13.5L538,285h16.8l17.6,52.5
		c1.3,3.9,3.2,9.5,6.4,13.5C577.4,350.3,576.1,349.4,574.7,348.2 M594.3,349.9c-5.2,1-9.5,0.4-13.2-7.6
		c-1.3-2.8-19.9-57.3-19.9-57.3h14.4l31.7,50.4c3.6,5.7,7.3,8.1,8.4,8.8L594.3,349.9z M629.6,340.4c-5.9,1.1-11.6-0.6-16.6-8.1
		L582.7,285h16.7l38,39.4c1.9,2,6.7,7.3,12.3,10.5L629.6,340.4z M663.3,331.2c-8.7,1.7-15.3-5.2-21.3-11.3l-34.2-35h18.6
		c0,0,48.1,34.7,50.3,36.2c2.3,1.5,5,3.1,8,4.3L663.3,331.2z M703.2,313.1c-1.9,2.7-3.6,5.2-7,7.5c-4,1.3-9.4-0.3-16.1-4.6
		c-1.9-1.2-43.7-30.9-43.7-30.9h22.2c0,0,25.7,12.7,33.3,16.2c4.3,2,9.8,4.5,17,4.9C706.4,308.4,704.8,310.8,703.2,313.1
		 M723.9,298.2L723.9,298.2c-7.9,2.1-15.7,3.1-24.6-0.3c-3.2-1.2-27.7-12.9-27.7-12.9h30c0,0,26.4,7.7,26.8,7.8
		c0.7,0.2,3.3,1,7.6,1.9C729.4,296.6,724.9,297.9,723.9,298.2 M755.2,289.1c-9.8,2.7-25.2-1.9-25.2-1.9c-0.1,0-24.7-7-24.7-7v-9
		c0,0,58.9,9.8,65.5,10.9c2.2,0.4,3.4,0.6,5.4,0.8C769,285,761.9,287.1,755.2,289.1 M801.3,275.6c-12.5,3.3-21.8,1.8-29.5,0.6
		c-6.6-1.1-66.5-10.7-66.5-10.7v-8.3l114.8,12.9C815.5,271.5,808.8,273.4,801.3,275.6 M840.7,255.4c-1.1,2.1-2.4,4.2-3.9,6.2
		c-4.3,4.7-13.8,2.6-27.8,1.1l-103.7-11.1V244c0,0,129.6,8,131.2,8.1c3.6,0.2,4,0.3,5.9,0.4C841.8,253.4,841.2,254.3,840.7,255.4
		 M855.6,244.1c-5.1,3.2-10.8,2.3-27.9,1.3l-122.4-7.1v-7l158.9,0.7C861,236.6,860.1,241.3,855.6,244.1 M882.6,215.6l-3,5
		c-3.4,5.2-5.6,5.2-17,5.2h-281c1.2-1.5,2.1-3.1,2.9-4.5c6.1-10.6,12.4-10.5,18-10.5h277.3C884.1,210.7,883.5,214.1,882.6,215.6
		 M569.5,269.8c-0.7-8.7-1.2-13.8-1.6-17.3c-4.7,8.5-6.7,12.5-8.6,16.9h-1.9c-4.7-9.5-5.2-10.6-6.5-13.1c-0.4-0.8-1-1.8-1.9-3.6
		c-0.4,3.4-1.1,10.2-1.6,17.1h-4.8c1.4-10,3.6-27,3.8-28.4h2.9c0,0,6.9,13.7,9.9,18.9c3.5-6.4,5.7-10.9,10.2-18.9h2.6
		c0.5,4.1,2,17.1,3.4,28.4H569.5z M657.1,241.4h-5.6v28.4h5.6V241.4z M640.2,269.8v-24.2c4.2,0.1,6.4,0.3,8.5,0.6v-4.8h-22.9v4.8
		c2.4-0.3,4.8-0.5,8.8-0.6v24.2H640.2z M462.8,269.8v-24.2c4.2,0.1,6.4,0.3,8.5,0.6v-4.8h-22.9v4.8c2.4-0.3,4.8-0.5,8.8-0.6v24.2
		H462.8z M528.5,269.8v-28.4h-4.4v18.3l-16.9-18.3H504v28.4h4.5v-19.2l17.2,19.2H528.5z M429.6,261.8v6.3c1.8,1.1,4,2.4,7.7,2.4
		c6.1,0,11.6-3.4,11.6-9.3c0-1.9-0.6-5.3-4.9-7.2c-3.6-1.6-5.9-2-7.5-3.3c-2.8-2.4-0.5-6.2,3.3-6.2c1.2,0,4,0.3,4.8,3.1h2.1v-5.2
		c-2-0.9-4.5-1.8-7.1-1.8c-2.3,0-4.5,0.7-6.3,2c-4.3,3.2-5.5,9.6,0.6,13.3c3.9,2.3,9.1,2.1,9.3,6.3c0.1,3.1-2.9,4.3-5.1,4.3
		c-4.5,0-5.9-3.9-6.2-4.7L429.6,261.8z M429.5,269.8l-12.5-29h-2.4l-12.9,29h5.3c0.7-2.3,1.2-4.1,2.8-8H420c1.3,3.1,2.2,5.9,3,8
		H429.5z M411.4,258.1c0.6-1.4,0.7-1.7,3.5-8.3c2.7,6.3,2.9,6.7,3.5,8.3H411.4z M500.3,255.6c0-10-7.5-15.2-14.8-15.2
		s-14.8,5.1-14.8,15.2c0,10,7.5,15.2,14.8,15.2C492.9,270.8,500.3,265.7,500.3,255.6 M485.6,267L485.6,267c-4.5,0-8.5-4.2-8.5-11.4
		c0-7.5,4.3-11.4,8.5-11.4l0,0c4.2,0,8.5,3.9,8.5,11.4S489.8,267,485.6,267L485.6,267z M605.6,269.8h5.6v-11.7h1.4l9.5,11.7h7
		l-10.6-12.5c1.5-0.6,2.8-1.4,3.8-2.4c2.9-2.9,3.3-7.9,0-11.2c-1.7-1.7-3.6-2.6-8.4-2.6c0,0-6.5,0.1-8.2,0.2L605.6,269.8z
		 M611.2,244.8c0.7-0.1,1.3-0.1,1.9-0.1c5.8,0,6,4.3,6,4.9c0,3-2.6,5.7-7.9,4.8V244.8z M604.1,269.8l-12.5-29h-2.4l-12.9,29h5.3
		c0.7-2.3,1.2-4.1,2.8-8h10.1c1.3,3.1,2.2,5.9,3,8H604.1z M586.1,258.1c0.6-1.4,0.7-1.7,3.5-8.3c2.7,6.3,2.9,6.7,3.5,8.3H586.1z
		 M687.4,269.8v-28.4H683v18.3l-17-18.3h-3.2v28.4h4.5v-19.2l17.2,19.2H687.4z"/>
	<g>
		<path d="M494.6,657.8H491l-21.5,48.3h8.2c0.8-2.9,1.8-6.2,4.7-13.5H500c2.1,5.2,3.8,10,5.1,13.5h10.3L494.6,657.8z M491.2,671.8
			c5.2,12,5.3,12,6.5,15.2h-13C486.1,683.9,486.2,683.8,491.2,671.8"/>
		<path d="M822.5,657.8H819l-21.5,48.3h8.2c0.8-2.9,1.8-6.2,4.7-13.5H828c2.1,5.2,3.8,10,5.1,13.5h10.3L822.5,657.8z M819.2,671.8
			c5.2,12,5.3,12,6.5,15.2h-13C814.1,683.9,814.1,683.8,819.2,671.8"/>
		<path d="M371.1,706.1c-1.2-15-2.1-24-2.8-30c-8.1,14.6-11.6,21.7-14.9,29.3h-2.7c-8.2-16.8-9.1-18.4-11-21.9
			c-0.8-1.5-1.7-3.2-3.7-7.1c-0.4,3-1.8,16.2-2.8,29.7h-7.4c2.4-17,6.1-45.7,6.3-47.3h4.4c0.7,1.3,1.3,2.6,1.9,3.9
			c5.4,10.8,9.7,19.4,14.9,28.3l0.1,0.1l0.1-0.1c2.3-4.3,4.5-8.3,6.5-12.2c3.2-6,6.5-12.2,10.9-20h3.9c0.2,1.5,2.9,24.9,5.6,47.3
			H371.1z"/>
		<path d="M892,706.1c-1.2-15-2.1-24-2.8-30c-8.1,14.6-11.6,21.7-14.9,29.3h-2.7c-8.2-16.8-9.1-18.4-11-21.9
			c-0.8-1.5-1.7-3.2-3.7-7.1c-0.3,3-1.8,16.2-2.8,29.7h-7.4c2.4-17,6.1-45.7,6.3-47.3h4.4c0.7,1.3,1.3,2.6,1.9,3.9
			c5.4,10.8,9.7,19.4,14.9,28.3l0.1,0.1l0.1-0.1c2.3-4.3,4.5-8.3,6.5-12.2c3.2-6,6.5-12.2,10.9-20h3.9c0.2,1.5,2.9,24.9,5.6,47.3
			H892z"/>
		<path d="M250.4,707.8c-9.9,0-15.7-5.2-17.1-6.6c-4-3.8-7.5-9.9-7.5-18.7s3.5-14.9,7.5-18.7c1.4-1.3,7.2-6.6,17.1-6.6
			c6,0,17.5,2.5,22.5,14.5c1.4,3.2,2,6.9,2,10.8c0,8.8-3.5,14.9-7.5,18.7C266,702.5,260.2,707.8,250.4,707.8 M250.4,702.1
			c7.3,0,14.8-6.8,14.8-19.7s-7.4-19.7-14.8-19.7l0,0c-7.3,0-14.8,6.8-14.8,19.7S243,702.1,250.4,702.1L250.4,702.1L250.4,702.1z"/>
		<path d="M563.1,707.8c-9.9,0-15.7-5.2-17.1-6.6c-4-3.8-7.5-9.9-7.5-18.7s3.5-14.9,7.5-18.7c1.4-1.3,7.2-6.6,17.1-6.6
			c6,0,17.5,2.5,22.5,14.5c1.4,3.2,2,6.9,2,10.8c0,8.8-3.5,14.9-7.5,18.7C578.8,702.5,573,707.8,563.1,707.8 M563.1,702.1
			c7.3,0,14.8-6.8,14.8-19.7s-7.4-19.7-14.8-19.7l0,0c-7.3,0-14.8,6.8-14.8,19.7S555.8,702.1,563.1,702.1L563.1,702.1L563.1,702.1z"
			/>
		<path d="M283.4,658.7c2.6-0.2,13.3-0.3,13.5-0.3c8.1,0,11.3,1.6,14,4.3c2.6,2.6,3.9,5.9,3.8,9.4c-0.1,3.3-1.5,6.6-3.8,8.9
			c-2.5,2.5-5.6,3.7-6.7,4.1L322,706h-10.8l-16-19.8h-2.9V706h-8.8L283.4,658.7z M295.7,663.7c-1.1,0-2.3,0.1-3.5,0.3h-0.1v16.7h0.1
			c1.3,0.2,2.5,0.3,3.6,0.3c7.1,0,10.3-4.5,10.3-8.8l0,0c0-0.6-0.1-3.5-2.4-5.8C301.9,664.6,299.2,663.7,295.7,663.7"/>
		<polygon points="439.3,706.1 439.3,658.8 448.1,658.8 448.1,699.9 467.7,699.9 467.7,706.1 		"/>
		<polygon points="684,660.7 680.4,660.7 680.4,658.8 690,658.8 690,660.7 686.3,660.7 686.3,671.1 684,671.1 		"/>
		<path d="M702.5,666.1c-0.1-1.6-0.2-3.5-0.2-5.2h-0.1c-0.4,1.5-0.9,3.2-1.5,4.7L699,671h-1.9l-1.7-5.3c-0.5-1.6-0.9-3.3-1.3-4.8
			l0,0c-0.1,1.6-0.1,3.6-0.2,5.3l-0.3,5h-2.2l0.8-12.3h3.1l1.7,5c0.5,1.4,0.8,2.9,1.2,4.3h0.1c0.3-1.3,0.8-2.9,1.3-4.3l1.8-4.9h3.1
			l0.7,12.3h-2.3L702.5,666.1z"/>
		<path d="M632.6,706.1c-2-2.5-16.1-18.1-29.6-33v33h-6.8v-47.3h4.8l29.1,31.6v-31.6h6.8v47.3H632.6z"/>
		<path d="M736.1,706.1v-40.9c-7.4,0.1-12,0.6-14.9,0.9v-7.4h38v7.4c-2.2-0.3-6.5-0.9-14.3-1V706L736.1,706.1L736.1,706.1z"/>
		<path d="M656.3,699.8v-15.3h16.9v-5.8h-16.9v-14c4,0,9.6,0,19.3,0.6v-6.7h-28.1v47.3h28.9v-7C670,699.5,662.7,699.8,656.3,699.8"
			/>
		<path d="M774.2,699.8v-15.3h16.9v-5.8h-16.9v-14c4,0,9.6,0,19.3,0.6v-6.7h-28.1v47.3h28.9v-7C787.9,699.5,780.5,699.8,774.2,699.8
			"/>
		<path d="M421.1,658.8c0.3,18.2,0.2,25.4,0.2,25.4c0,5.9-0.4,16.6-11.8,16.6c-4.1,0-12.2-0.7-12.2-14.2c0-12.2,0.3-27.3,0.3-27.8
			h-9.2c0,0.6,0,14.4,0,27.8c0,19.4,15.6,20.2,19.5,20.2c11.2,0,20-5.1,20.2-20.6l0.1-27.4H421.1z"/>
		<path d="M220.3,665.5L220.3,665.5v-6.7h-28.8v47.4h8.8v-20.3h17.8v-6.2h-17.8V665C209.1,664.9,214.3,665.1,220.3,665.5"/>
	</g>
	<g>
		<path d="M918.6,471.3c0,5.1-4.2,9.3-9.3,9.3s-9.3-4.2-9.3-9.3c0-5.1,4.2-9.3,9.3-9.3C914.4,462,918.6,466.2,918.6,471.3
			 M917.3,471.3c0-4.4-3.6-8.1-8-8.1s-8,3.6-8,8.1c0,4.4,3.6,8.1,8,8.1S917.3,475.8,917.3,471.3 M911,472.1l2.8,4.3h-2.2l-2.5-4.1
			h-1.4v4.1h-1.8v-10.3h3.9c1.7,0,3.2,1.3,3.2,3.1C912.9,470.7,912.2,471.7,911,472.1 M907.7,470.8h1.9c0.9,0,1.6-0.6,1.6-1.5
			s-0.7-1.4-1.6-1.4h-1.9V470.8z M569.6,492.3h14v84h-14V492.3z M518.4,490.4c-9.3,0-17.8,3.3-24.5,8.8v-6.9h-14v84h14V529
			c0-13.5,11-24.5,24.5-24.5s24.5,11,24.5,24.5v47.3h14V529C556.9,507.6,539.6,490.4,518.4,490.4 M451.9,492.2h14V573l0,0
			c0,24.2-21.1,43.8-43.8,43.8c-20.9,0-36.3-12.8-41.7-30.4h15c4.6,9.7,13.7,16.4,26.7,16.4c14.9,0,29.8-13.4,29.8-29.8v-6.8
			c-7.8,7.3-18.3,11.7-29.8,11.7c-24.2,0-43.8-19.6-43.8-43.8s19.6-43.8,43.8-43.8c11.5,0,22,4.4,29.8,11.7V492.2z M451.9,534.2
			c0-16.5-13.4-29.8-29.8-29.8c-16.5,0-29.8,13.4-29.8,29.8c0,16.5,13.4,29.8,29.8,29.8S451.9,550.7,451.9,534.2 M235.3,504.4
			c12,0,22.3,7,27,17.2h14.9c-5.4-18-22.2-31.2-42-31.2c-24.2,0-43.8,19.6-43.8,43.8c0,24.2,19.6,43.8,43.8,43.8
			c19.8,0,36.5-13.2,42-31.2h-14.9c-4.8,10.2-15.1,17.2-27,17.2c-16.5,0-29.8-13.4-29.8-29.8C205.5,517.7,218.8,504.4,235.3,504.4
			 M371.5,534.2c0,24.2-19.6,43.8-43.8,43.8c-24.2,0-43.8-19.6-43.8-43.8s19.6-43.8,43.8-43.8C351.9,490.4,371.5,510,371.5,534.2
			 M357.5,534.2c0-16.5-13.4-29.8-29.8-29.8c-16.5,0-29.8,13.4-29.8,29.8c0,16.5,13.4,29.8,29.8,29.8
			C344.2,564,357.5,550.7,357.5,534.2 M815.3,490.4c-9.3,0-17.8,3.3-24.5,8.8v-6.9h-14v83.9h14v-47.3c0-13.5,11-24.5,24.5-24.5
			s24.5,11,24.5,24.5v47.3h14v-47.3C853.8,507.6,836.6,490.4,815.3,490.4 M748.8,492.3h14v83.9h-14v-9.9
			C741,573.6,730.5,578,719,578c-24.2,0-43.8-19.6-43.8-43.8s19.6-43.8,43.8-43.8l0,0c11.5,0,22,4.5,29.8,11.7V492.3z M748.8,534.2
			c0-16.5-13.4-29.8-29.8-29.8c-16.5,0-29.8,13.4-29.8,29.8c0,16.5,13.4,29.8,29.8,29.8C735.5,564,748.8,550.7,748.8,534.2
			 M900.6,506.3v-14h-21v-22.9h-14v22.9v14v42c0,15.5,12.5,28,28,28h7v-14h-7l0,0c-7.7,0-14-6.3-14-14v-42H900.6z M576.6,462
			c-5.1,0-9.3,4.2-9.3,9.3c0,5.1,4.2,9.3,9.3,9.3s9.3-4.2,9.3-9.3C585.9,466.1,581.8,462,576.6,462 M667.7,492.3h-70v14h51.8
			l-51.8,56v14h70v-14h-51.9l51.8-56L667.7,492.3z"/>
	</g>
	<g>
		<g>
			<path d="M1832.7,397.2c-31.4,0-57,25.6-57,57s25.6,57.1,57,57.1s56.7-25.6,56.7-57.1C1889.4,422.8,1864.1,397.2,1832.7,397.2
				 M1832.7,485.3c-17.3,0-31.1-14.1-31.1-31.1s13.8-30.8,31.1-30.8c17,0,30.8,13.8,30.8,30.8
				C1863.5,471.2,1849.7,485.3,1832.7,485.3"/>
			<path d="M1623.9,395.9c-12.5,0-25.3,2.6-35.6,6.7c-8.3-4.8-16.3-6.7-27.9-6.7c-14.4,0-29.1,1.9-45.2,7.4l-2.9,1v104.8h28.5v-85.9
				c5.8-1.9,10.3-2.6,16-2.6c14.1,0,18.3,4.5,18.3,19.2V509h28.8v-71.1c0-6.4-0.3-10.6-1.3-14.4c5.8-1.9,10.3-2.9,15.4-2.9
				c13.5,0,19.6,6.1,19.6,19.2V509h28.5v-71.5c0-14.1-2.3-22.4-8.7-29.5C1650.4,400.4,1638.6,395.9,1623.9,395.9"/>
			<path d="M1738.2,486.5c-19,0-29.9-11.8-29.9-32.4c0-21.1,11-33.2,30.2-33.2c4,0,7.3,0.4,10.5,1.4c0,0,5.9,1.7,11.1,5.7l12.1-20.7
				c-6.6-5.5-14.3-7.9-16.9-8.5c-7.4-2.2-18.3-2.6-18.3-2.6c-34.3,0-57.3,23.8-57.3,59.1c0,34,21.8,55.9,55.7,55.9
				c0,0,22.7,1,37.9-13.1l-14.2-18.2C1751.3,484.8,1745.9,486.5,1738.2,486.5"/>
			<path d="M1366.4,396.9c-40.7,0-59.6,17.9-59.6,56.1v56.1h29.2v-53.8v-2.6c0-19.2,10.9-31.1,27.9-31.1c7.1,0,12.5,1.3,16.3,2.2
				l6.7-25.3C1375.6,396.9,1366.4,396.9,1366.4,396.9"/>
			<path d="M1495.7,449.8v59.3h-39.1c-26.9,0-38.8-1.9-52.9-11.2c-12.2-8.3-18.9-24-18.9-44.5c0-28.2,18.6-56.7,59.6-56.7
				C1477.7,396.6,1495.7,415.2,1495.7,449.8 M1467.2,453c0-21.5-8.3-32-25-32c-17,0-27.9,12.5-27.9,31.4c0,22.8,10.9,32.7,35.2,32.7
				h17.6V453H1467.2z"/>
			<path d="M1290.9,449.8v59.3h-38.8c-26.9,0-38.8-1.9-52.9-11.2c-12.2-8.3-18.9-24-18.9-44.5c0-28.2,18.6-56.7,59.6-56.7
				C1273.3,396.6,1290.9,415.2,1290.9,449.8 M1261.4,453c0-21.8-7.7-32-24.7-32s-27.9,12.5-27.9,31.4c0,22.8,10.9,32.7,35.2,32.7
				h17.3L1261.4,453L1261.4,453z"/>
		</g>
	</g>
</g>
<g id="Guides" class="st0">
	<g class="st1">
		<path class="st2" d="M43.8,393.7c12,0,22.3,7,27,17.2h14.9c-5.4-18-22.2-31.2-42-31.2C19.6,379.7,0,399.3,0,423.5
			s19.6,43.8,43.8,43.8c19.8,0,36.5-13.2,42-31.2h-15c-4.8,10.2-15.1,17.2-27,17.2C27.3,453.3,14,440,14,423.5
			S27.3,393.7,43.8,393.7"/>
		<path class="st2" d="M129.6,393.7c12,0,22.3,7,27,17.2h14.9c-5.4-18-22.2-31.2-42-31.2c-24.2,0-43.8,19.6-43.8,43.8
			c0,24.2,19.6,43.8,43.8,43.8c19.8,0,36.5-13.2,42-31.2h-14.9c-4.8,10.2-15.1,17.2-27,17.2c-16.5,0-29.8-13.4-29.8-29.8
			C99.8,407,113.1,393.7,129.6,393.7"/>
	</g>
	<g class="st1">
		<path class="st2" d="M965,423.8c12,0,22.3,7,27,17.2h14.9c-5.4-18-22.2-31.2-42-31.2c-24.2,0-43.8,19.6-43.8,43.8
			c0,24.2,19.6,43.8,43.8,43.8c19.8,0,36.5-13.2,42-31.2H992c-4.8,10.2-15.1,17.2-27,17.2c-16.5,0-29.8-13.4-29.8-29.8
			C935.1,437.2,948.5,423.8,965,423.8"/>
		<path class="st2" d="M1050.7,423.8c12,0,22.3,7,27,17.2h14.9c-5.4-18-22.2-31.2-42-31.2c-24.2,0-43.8,19.6-43.8,43.8
			c0,24.2,19.6,43.8,43.8,43.8c19.8,0,36.5-13.2,42-31.2h-14.9c-4.8,10.2-15.1,17.2-27,17.2c-16.5,0-29.8-13.4-29.8-29.8
			C1020.9,437.2,1034.3,423.8,1050.7,423.8"/>
		<path class="st2" d="M1136.5,423.8c-12,0-22.3,7-27,17.2h-14.9c5.4-18,22.2-31.2,42-31.2c24.2,0,43.8,19.6,43.8,43.8
			c0,24.2-19.6,43.8-43.8,43.8c-19.8,0-36.5-13.2-42-31.2h14.9c4.8,10.2,15.1,17.2,27,17.2c16.5,0,29.8-13.4,29.8-29.8
			C1166.3,437.2,1153,423.8,1136.5,423.8"/>
		<path class="st2" d="M1050.7,423.8c-12,0-22.3,7-27,17.2h-14.9c5.4-18,22.2-31.2,42-31.2c24.2,0,43.8,19.6,43.8,43.8
			c0,24.2-19.6,43.8-43.8,43.8c-19.8,0-36.5-13.2-42-31.2h14.9c4.8,10.2,15.1,17.2,27,17.2c16.5,0,29.8-13.4,29.8-29.8
			C1080.6,437.2,1067.2,423.8,1050.7,423.8"/>
	</g>
	<g class="st1">
		<path class="st2" d="M1933.3,423.9c12,0,22.3,7,27,17.2h14.9c-5.4-18-22.2-31.2-42-31.2c-24.2,0-43.8,19.6-43.8,43.8
			c0,24.2,19.6,43.8,43.8,43.8c19.8,0,36.5-13.2,42-31.2h-14.9c-4.8,10.2-15.1,17.2-27,17.2c-16.5,0-29.8-13.4-29.8-29.8
			C1903.4,437.3,1916.8,423.9,1933.3,423.9"/>
		<path class="st2" d="M2019,423.9c12,0,22.3,7,27,17.2h14.9c-5.4-18-22.2-31.2-42-31.2c-24.2,0-43.8,19.6-43.8,43.8
			c0,24.2,19.6,43.8,43.8,43.8c19.8,0,36.5-13.2,42-31.2H2046c-4.8,10.2-15.1,17.2-27,17.2c-16.5,0-29.8-13.4-29.8-29.8
			C1989.2,437.3,2002.6,423.9,2019,423.9"/>
	</g>
	<g class="st1">
		<path class="st2" d="M1019.5,127.7c0-12,7-22.3,17.2-27V85.8c-18,5.4-31.2,22.2-31.2,42c0,24.2,19.6,43.8,43.8,43.8
			s43.8-19.6,43.8-43.8c0-19.8-13.2-36.5-31.2-42v14.9c10.2,4.8,17.2,15.1,17.2,27c0,16.5-13.4,29.8-29.8,29.8
			C1032.8,157.6,1019.5,144.2,1019.5,127.7"/>
		<path class="st2" d="M1019.5,42c0-12,7-22.3,17.2-27V0c-18,5.4-31.2,22.2-31.2,42c0,24.2,19.6,43.8,43.8,43.8s43.8-19.6,43.8-43.8
			c0-19.8-13.2-36.5-31.2-42v14.9c10.2,4.8,17.2,15.1,17.2,27c0,16.5-13.4,29.8-29.8,29.8C1032.8,71.8,1019.5,58.4,1019.5,42"/>
	</g>
	<g class="st1">
		<path class="st2" d="M1079.1,779.5c0,12-7,22.3-17.2,27v14.9c18-5.4,31.2-22.2,31.2-42c0-24.2-19.6-43.8-43.8-43.8
			c-24.2,0-43.8,19.6-43.8,43.8c0,19.8,13.2,36.5,31.2,42v-14.9c-10.2-4.8-17.2-15.1-17.2-27c0-16.5,13.4-29.8,29.8-29.8
			C1065.8,749.7,1079.1,763,1079.1,779.5"/>
		<path class="st2" d="M1079.1,865.3c0,12-7,22.3-17.2,27v14.9c18-5.4,31.2-22.2,31.2-42c0-24.2-19.6-43.8-43.8-43.8
			c-24.2,0-43.8,19.6-43.8,43.8c0,19.8,13.2,36.5,31.2,42v-14.9c-10.2-4.8-17.2-15.1-17.2-27c0-16.5,13.4-29.8,29.8-29.8
			C1065.8,835.5,1079.1,848.8,1079.1,865.3"/>
	</g>
</g>
</svg>
