<?xml version="1.0" encoding="UTF-8"?>
<svg clip-rule="evenodd" fill-rule="evenodd" stroke-linejoin="round" stroke-miterlimit="2" version="1.1" viewBox="0 0 358 112" xml:space="preserve" xmlns="http://www.w3.org/2000/svg">
    <g transform="matrix(1.7396 0 0 1.7396 56.085 55.726)">
            <g transform="translate(-32,-32)">
                <g fill-rule="nonzero">
                    <path id="outer_24_" d="m63.3 32c0 17.3-14 31.3-31.3 31.3s-31.3-14-31.3-31.3 14-31.3 31.3-31.3 31.3 14 31.3 31.3zm-31.3-29.4c-16.3 0-29.4 13.1-29.4 29.4s13.2 29.4 29.4 29.4c16.3 0 29.4-13.2 29.4-29.4 0-16.3-13.1-29.4-29.4-29.4z" fill="url(#_Linear1)"/>
                    <path d="m32 2.6c-16.3 0-29.4 13.1-29.4 29.4s13.2 29.4 29.4 29.4c16.3 0 29.4-13.2 29.4-29.4 0-16.3-13.1-29.4-29.4-29.4zm0 56.9c-15.2 0-27.5-12.3-27.5-27.5s12.3-27.5 27.5-27.5 27.5 12.3 27.5 27.5-12.3 27.5-27.5 27.5z" fill="url(#_Linear2)"/>
                    <path d="m32 63.3c17.3 0 31.3-14 31.3-31.3s-14-31.3-31.3-31.3-31.3 14-31.3 31.3 14 31.3 31.3 31.3zm0-63.3c17.6 0 32 14.4 32 32s-14.4 32-32 32-32-14.4-32-32 14.4-32 32-32z" fill="url(#_Linear3)"/>
                    <path d="m2.2 32.1c0-16.4 13.3-29.9 29.8-29.9s29.8 13.4 29.8 29.9c0 16.4-13.3 29.7-29.8 29.7s-29.8-13.3-29.8-29.7zm9.3-20.6c-5.3 5.3-8.6 12.6-8.6 20.6s3.3 15.3 8.5 20.5c5.3 5.2 12.6 8.5 20.6 8.5s15.3-3.2 20.5-8.5c5.3-5.2 8.5-12.5 8.5-20.5s-3.3-15.3-8.5-20.6-12.5-8.6-20.5-8.6-15.3 3.3-20.5 8.6z" fill="#fff"/>
                    <path d="m32 59.6c-7.4 0-14.3-2.9-19.5-8.1s-8.1-12.1-8.1-19.5 2.9-14.3 8.1-19.5 12.1-8.1 19.5-8.1 14.3 2.9 19.5 8.1 8.1 12.1 8.1 19.5-2.9 14.3-8.1 19.5-12.1 8.1-19.5 8.1zm0-0.8c7.1 0 13.9-2.8 18.9-7.8 5.1-5.1 7.8-11.8 7.8-18.9s-2.8-13.9-7.8-18.9c-5.1-5.1-11.8-7.8-18.9-7.8s-13.9 2.8-18.9 7.8c-5.1 4.9-7.9 11.7-7.9 18.8s2.8 13.9 7.8 18.9c5.1 5.1 11.9 7.9 19 7.9z" fill="url(#_Linear4)"/>
                    <path d="m56.3 45c-0.5-0.4-19.8-15.7-19.8-15.7l-4.5-25.7c-0.3 0.1-0.7 0.4-0.9 0.8l-3.2 25-19.9 15.3s-0.4 0.5-0.6 0.8c-0.1 0.2-0.1 0.5-0.1 0.8l24.6-10.1 24.6 10.1c0.2-0.5 0-1-0.2-1.3z" fill="#fff"/>
                    <path d="m32.2 32.8-0.2 4.6 22.6 9.1c0.8 0.4 1.4 0.2 2-0.2l-24.1-13.6c-0.1-0.1-0.3 0-0.3 0.1z" fill="#565f64"/>
                    <path d="m32.2 32.8s1.3 2.3 2.8 3.9c2.1 2.3 4.9 3.9 4.9 3.9l14.7 5.9c0.8 0.4 1.4 0.2 2-0.2l-24.1-13.6c-0.1-0.1-0.3 0-0.3 0.1z" fill="url(#_Linear5)"/>
                    <path d="m56.5 45.4c0-0.1-0.1-0.2-0.2-0.4l-20.6-15.1-2.8 1.8s0.2 0.1 0.3 0c0.3-0.1 0.9-0.2 1.5 0 0.5 0.2 21.8 13.8 21.8 13.8z" fill="#a4aaae" fill-opacity=".6"/>
                    <path d="m55.8 44.5-19.2-15.2-0.9 0.6 20.6 15.2c-0.1-0.2-0.3-0.4-0.5-0.6z" fill="#333e46"/>
                    <path d="m32.5 31.3-0.1 0.1s0 0.2 0.2 0.1c0.1-0.1 3-1.6 4-2.2l-3.5-24c-0.1-0.9-0.5-1.3-1.2-1.6l0.4 27.8z" fill="#565f64"/>
                    <path d="m30.8 5.3v1.3l-2.2 22.1c0 0.3 0.1 0.6 0.4 0.8l1.3 1 0.9-24.4 0.1-1.9c-0.3 0.2-0.4 0.6-0.5 1.1z" fill="#a4aaae" fill-opacity=".6"/>
                    <path d="m29.6 30.9-1.2-1-20.3 14.7s-0.6 0.4-0.7 0.8l0.7-0.4 21.3-13.4c0.4-0.2 0.5-0.4 0.2-0.7z" fill="#a4aaae" fill-opacity=".6"/>
                    <path d="m31.7 32.8c0-0.1-0.1-0.2-0.2-0.1l-24.2 13.7c0.6 0.4 1.2 0.5 2 0.2l22.6-9.1z" fill="#565f64"/>
                    <path d="m32.4 31.4 0.1-0.1-0.1 0.1s0 0.1 0.1 0.1h0.1c0.1-0.1 3-1.6 4-2.2l-0.4-2.9-3.1-21.1c0-0.4-0.1-0.7-0.3-0.9 0 0 1.5 20.2 1.5 22.4 0 2.9-1.9 4.6-1.9 4.6z" fill="url(#_Linear6)"/>
                    <path d="m31.7 32.8c0-0.1-0.1-0.2-0.2-0.1l-24.2 13.7c0.6 0.4 1.2 0.5 2 0.2l22.6-9.1z" fill="url(#_Linear7)"/>
                    <path d="m9.3 46.5 22.6-9.1-0.2-4.4c-0.4 1.2-1.1 2.5-3 3.5-1.4 0.8-14.8 7.4-19.6 9.7-0.3 0.2-0.7 0.3-0.9 0.4 0.4 0.2 0.7 0.1 1.1-0.1z" fill="url(#_Linear8)"/>
                    <path d="m32.5 31.3-0.1 0.1s0 0.2 0.2 0.1c0.1-0.1 3-1.6 4-2.2l-3.5-24c-0.1-0.9-0.5-1.3-1.2-1.6l0.4 27.8z" fill="url(#_Linear9)"/>
                    <path d="m32.5 31.3-0.1 0.1s0 0.2 0.2 0.1c0.1-0.1 3-1.6 4-2.2l-3.5-24c-0.1-0.9-0.5-1.3-1.2-1.6l0.4 27.8z" fill="url(#_Linear10)"/>
                    <path d="m5.1 44.4c-0.7-1.6-4.7-9.4-0.3-24.4h-1.7c-0.9 3-1.6 4.8-2 7.5 0 0-0.2 1-0.3 2.1s-0.1 1.7-0.1 2.4c0 6 1.5 9.5 1.5 9.5 1.6 5 4.4 9.5 8.2 12.9 3.3 2.9 8.4 5.1 12.6 5.9-0.7-0.1-12.7-5.2-17.9-15.9z" fill="url(#_Linear11)"/>
                    <path d="m32.4 32.6h-0.9c0.1 0 0.2 0 0.2 0.1l0.2 4.6h0.1l0.2-4.6c0-0.1 0.1-0.2 0.2-0.1z" fill="url(#_Linear12)"/>
                    <path d="m42 2.3c10.5 4 20.4 15 20.4 28.9 0 16.8-13.4 30.5-30.4 30.5v1.6c17 0 31.3-14 31.3-31.3 0-13.8-8.8-25.4-21.3-29.7z" fill="url(#_Linear13)"/>
                    <path d="m32.3 0.7h-0.3z" fill="url(#_Linear14)"/>
                    <path d="m58.8 20.2c-7-16.1-22.8-17-23.7-17.1h-0.1c12.1 2.2 19.8 10.1 22.5 18.4v0.1c1.2 3.2 1.8 6.6 1.9 10.3 0.1 3.5-0.7 7.4-2.2 11-0.1 0.5-0.2 1.1-0.3 1.1h1.6c4.8-9 2.7-18.1 0.3-23.8z" fill="url(#_Linear15)"/>
                    <path d="m2.2 32.1c0-16.4 13.3-29.9 29.8-29.9s29.8 13.4 29.8 29.9c0 16.4-13.3 29.7-29.8 29.7s-29.8-13.3-29.8-29.7zm9.3-20.6c-5.3 5.3-8.6 12.6-8.6 20.6s3.3 15.3 8.5 20.5c5.3 5.2 12.6 8.5 20.6 8.5s15.3-3.2 20.5-8.5c5.3-5.2 8.5-12.5 8.5-20.5s-3.3-15.3-8.5-20.6-12.5-8.6-20.5-8.6-15.3 3.3-20.5 8.6z" fill="#fbfbfb"/>
                    <path d="m7.9 44.8 20.4-14.7c1.1 0.6 2.9 1.4 3.1 1.4 0.2 0.1 0.2-0.1 0.2-0.1l-2.5-2.1c-0.3-0.2-0.4-0.5-0.4-0.8l2.4-24.1c-0.1 0.1-0.1 0.3-0.2 0.4-0.1 0.2-0.1 0.3-0.1 0.5l-3.5 24.1-19.2 15.1c-0.1 0.1-0.2 0.2-0.2 0.3z" fill="#333f47"/>
                </g>
            </g>
        </g><path d="m320.06 40.31h35.65c0.58 0 1.06-0.48 1.06-1.06v-8.9c0-0.58-0.48-1.06-1.06-1.06h-17.52c-0.58 0-1.06 0.48-1.06 1.06v1.61c0 0.58 0.48 1.06 1.06 1.06h11.51c0.19 0 0.35 0.16 0.35 0.35v1.72c0 0.19-0.16 0.35-0.35 0.35h-22.91c-0.58 0-1.06-0.48-1.06-1.06v-6.6c0-0.58 0.48-1.06 1.06-1.06h28.93c0.58 0 1.06-0.48 1.06-1.06v-2.42c0-0.58-0.48-1.06-1.06-1.06h-35.65c-0.58 0-1.06 0.48-1.06 1.06v16c-0.01 0.59 0.47 1.07 1.05 1.07zm-9.98 0h4.6c0.58 0 1.06-0.48 1.06-1.06v-16c0-0.58-0.48-1.06-1.06-1.06h-5.17c-0.21 0-0.4 0.05-0.58 0.17l-12.61 8.23c-0.36 0.23-0.8 0.23-1.16 0l-12.61-8.23c-0.18-0.12-0.36-0.17-0.58-0.17h-5.17c-0.58 0-1.06 0.48-1.06 1.06v16c0 0.58 0.48 1.06 1.06 1.06h4.6c0.58 0 1.06-0.48 1.06-1.06v-9.64c0-0.18 0.09-0.34 0.25-0.43s0.35-0.08 0.5 0.01l9.76 6.12c0.18 0.11 0.35 0.16 0.56 0.16h4.38c0.21 0 0.39-0.05 0.56-0.16l9.76-6.12c0.16-0.1 0.34-0.1 0.5-0.01s0.26 0.25 0.26 0.43v9.64c0.03 0.58 0.51 1.06 1.09 1.06zm-38.65 0h-4.6c-0.58 0-1.06-0.48-1.06-1.06v-2.82c0-0.19-0.16-0.35-0.35-0.35h-24.19c-0.34 0-0.63 0.14-0.84 0.41l-2.53 3.27c-0.28 0.36-0.67 0.55-1.12 0.55h-6.32c-0.19 0-0.36-0.1-0.44-0.28-0.09-0.17-0.07-0.37 0.05-0.52l13.07-16.91c0.21-0.27 0.5-0.41 0.84-0.41h27.49c0.58 0 1.06 0.48 1.06 1.06v16c0 0.58-0.47 1.06-1.06 1.06zm-5.66-9.25v-3.97c0-0.19-0.16-0.35-0.35-0.35h-17.14c-0.23 0-0.42 0.1-0.56 0.27l-3.05 3.95c-0.07 0.09-0.08 0.2-0.03 0.3s0.14 0.16 0.25 0.16h20.53c0.19-0.01 0.35-0.17 0.35-0.36zm-79.39 9.25h-15.17c-0.19 0-0.36-0.1-0.44-0.28-0.09-0.17-0.07-0.37 0.05-0.52l13.07-16.91c0.21-0.27 0.5-0.41 0.84-0.41h15.02c0.22 0 0.41 0.12 0.51 0.32s0.07 0.42-0.06 0.6l-12.98 16.79c-0.21 0.27-0.5 0.41-0.84 0.41zm11.03 0h-7.18c-0.19 0-0.36-0.1-0.44-0.28-0.09-0.17-0.07-0.37 0.05-0.52l13.07-16.91c0.21-0.27 0.5-0.41 0.84-0.41h7.04c0.22 0 0.41 0.12 0.51 0.32s0.07 0.42-0.06 0.6l-12.98 16.79c-0.22 0.27-0.51 0.41-0.85 0.41zm9.89 0h-5.55c-0.19 0-0.36-0.1-0.44-0.28-0.09-0.17-0.07-0.37 0.05-0.52l13.07-16.91c0.21-0.27 0.5-0.41 0.84-0.41h5.4c0.22 0 0.41 0.12 0.51 0.32s0.08 0.42-0.06 0.6l-12.98 16.79c-0.21 0.27-0.5 0.41-0.84 0.41zm8.93 0h-3.87c-0.19 0-0.36-0.1-0.44-0.28-0.09-0.17-0.07-0.37 0.05-0.52l13.07-16.91c0.21-0.27 0.5-0.41 0.84-0.41h3.73c0.22 0 0.41 0.12 0.51 0.32s0.07 0.42-0.06 0.6l-12.98 16.79c-0.22 0.27-0.51 0.41-0.85 0.41zm8.56 0h-2.85c-0.19 0-0.36-0.1-0.44-0.28-0.09-0.17-0.07-0.37 0.05-0.52l13.07-16.91c0.21-0.27 0.5-0.41 0.84-0.41h2.7c0.22 0 0.41 0.12 0.51 0.32s0.07 0.42-0.06 0.6l-12.98 16.79c-0.21 0.27-0.5 0.41-0.84 0.41z"/><g transform="translate(-82.5,-54.16)" fill="#00a19b" fill-rule="nonzero">
                    <path d="m241.22 104.47c-1.03-0.64-3.05-0.94-6.17-0.94h-13.57v18.25h2.89v-7h10.68c3.13 0 5.15-0.3 6.17-0.93 1.05-0.64 1.58-1.83 1.58-3.52v-2.33c0.01-1.69-0.52-2.88-1.58-3.53zm-1.47 4.22v0.85c0 1.13-0.25 1.87-0.73 2.19-0.52 0.35-1.62 0.53-3.28 0.53h-11.36v-6.29h11.36c1.66 0 2.77 0.18 3.28 0.53 0.48 0.33 0.73 1.07 0.73 2.19z"/>
                    <path d="m251.64 106.02h16.53v-2.49h-19.37v18.25h19.37v-2.49h-16.53v-5.73h15.84v-2.49h-15.84z"/>
                    <path d="m272.35 106.02h9.49v15.76h2.89v-15.76h9.48v-2.49h-21.86z"/>
                    <path d="m319.71 104.46c-1.04-0.63-3.06-0.94-6.19-0.94h-13.93v18.25h2.89v-6.96h11.36c2.41 0 3.32 0.31 3.66 0.58 0.48 0.37 0.72 1.1 0.72 2.17v4.21h2.89v-4.65c0-1.09-0.29-1.97-0.87-2.6-0.36-0.39-0.83-0.69-1.4-0.88 0.74-0.24 1.29-0.55 1.66-0.93 0.54-0.56 0.81-1.43 0.81-2.59v-2.12c0.01-1.7-0.53-2.89-1.6-3.54zm-1.41 4.23v0.85c0 1.1-0.25 1.84-0.73 2.18-0.52 0.36-1.62 0.54-3.27 0.54h-11.81v-6.29h11.81c1.65 0 2.75 0.18 3.27 0.55 0.48 0.35 0.73 1.08 0.73 2.17z"/>
                    <path d="m350.1 104.6c-0.64-0.47-1.48-0.8-2.52-1-1.01-0.19-2.55-0.29-4.57-0.29h-6.4c-2.02 0-3.56 0.1-4.57 0.29-1.03 0.2-1.88 0.53-2.52 1-0.72 0.53-1.24 1.26-1.56 2.18-0.31 0.9-0.46 2.11-0.46 3.61v4.84c0 1.37 0.16 2.5 0.47 3.35 0.32 0.87 0.85 1.58 1.58 2.12 0.65 0.47 1.49 0.81 2.5 1 0.99 0.19 2.54 0.28 4.59 0.28h6.37c2.07 0 3.62-0.1 4.61-0.28 1.01-0.19 1.84-0.53 2.48-1 0.7-0.51 1.22-1.23 1.54-2.13 0.32-0.88 0.48-2.04 0.48-3.45v-4.94c0-1.4-0.16-2.55-0.48-3.44-0.32-0.91-0.84-1.63-1.54-2.14zm-5.96 14.83h-8.66c-1.21 0-2.14-0.1-2.79-0.29-0.62-0.18-1.1-0.49-1.44-0.91-0.25-0.3-0.43-0.67-0.53-1.08-0.11-0.44-0.16-1.19-0.16-2.22v-4.66c0-1.03 0.05-1.78 0.16-2.22 0.1-0.42 0.28-0.78 0.53-1.08 0.34-0.42 0.83-0.72 1.44-0.9 0.64-0.19 1.58-0.29 2.79-0.29h8.66c1.21 0 2.14 0.1 2.78 0.29 0.61 0.18 1.1 0.49 1.44 0.9 0.23 0.29 0.4 0.64 0.5 1.03 0.11 0.42 0.16 1.09 0.16 2v5.21c0 0.9-0.05 1.57-0.16 1.99-0.1 0.4-0.27 0.75-0.5 1.04-0.34 0.42-0.83 0.72-1.44 0.91-0.64 0.18-1.57 0.28-2.78 0.28z"/>
                    <path d="m382.7 103.53h-2.88v15.39l-16.96-15.39h-4.1v18.25h2.9v-15.63l17.21 15.63h3.83z"/>
                    <path d="m398.63 103.53-11.44 18.25h3.32l2.44-3.91h14.95l2.51 3.91h3.13l-11.47-18.25zm-4.19 11.96 5.94-9.46 6.04 9.46z"/>
                    <path d="m439.25 113.53c-0.3-0.69-0.81-1.24-1.52-1.62-0.48-0.27-1.12-0.46-1.91-0.58-0.77-0.11-1.92-0.17-3.43-0.17h-6.88c-2.07 0-3.43-0.2-4.06-0.6-0.6-0.38-0.89-1.08-0.89-2.14 0-1.04 0.3-1.73 0.91-2.1 0.65-0.39 1.96-0.59 3.89-0.59h6.53c1.89 0 3.14 0.19 3.7 0.57 0.53 0.36 0.79 1.08 0.79 2.15v0.53h2.8v-0.77c0-0.89-0.11-1.64-0.33-2.23-0.22-0.61-0.58-1.11-1.06-1.49-0.57-0.44-1.36-0.75-2.35-0.92-0.96-0.17-2.66-0.25-5.04-0.25h-4.35c-3.22 0-5.38 0.37-6.61 1.14-1.25 0.78-1.89 2.15-1.89 4.06 0 1.87 0.56 3.21 1.66 3.99 1.09 0.77 2.9 1.15 5.53 1.15h8.09c1.64 0 2.73 0.19 3.23 0.57 0.48 0.36 0.72 1.07 0.72 2.1 0 1.26-0.35 2.08-1.06 2.51-0.75 0.45-2.41 0.68-4.95 0.68h-5c-2.11 0-3.55-0.21-4.3-0.62-0.71-0.39-1.05-1.08-1.05-2.1 0-0.12 0.01-0.35 0.03-0.69l0.05-0.62h-2.79l-0.04 0.21c-0.01 0.06-0.02 0.14-0.02 0.24-0.03 0.54-0.04 0.92-0.04 1.14 0 1.75 0.59 3.03 1.76 3.79 1.15 0.75 2.99 1.12 5.64 1.12h6.5c3.06 0 5.14-0.4 6.34-1.21 1.21-0.83 1.83-2.28 1.83-4.33 0.01-1.26-0.14-2.24-0.43-2.92z"/>
                </g><g transform="translate(-82.5,-54.16)" fill-rule="nonzero">
                <path d="m259.25 136.89v0.99h-5.41v6.37h-1.13v-13.27h6.94v0.99h-5.81v4.91h5.41z"/>
                <path d="m273.25 137.6c0 4.04-2.15 6.86-5.19 6.86-3.12 0-5.23-2.81-5.23-6.94 0-3.94 2.19-6.76 5.21-6.76 3.06 0 5.21 2.83 5.21 6.84zm-9.2-0.06c0 3.48 1.63 5.91 3.98 5.91 2.33 0 3.98-2.43 3.98-5.85 0-3.4-1.65-5.83-3.98-5.83-2.3 0-3.98 2.43-3.98 5.77z"/>
                <path d="m279.43 130.98c2.05 0 2.65 0.06 3.52 0.36 1.37 0.44 2.23 1.69 2.23 3.28 0 1.75-0.95 2.94-2.86 3.58l3.64 6.05h-1.39l-3.56-5.89h-2.47v5.89h-1.13v-13.27zm0.04 6.38c1.75 0 2.19-0.04 2.86-0.28 1.03-0.36 1.61-1.25 1.61-2.49 0-1.13-0.52-1.97-1.39-2.33-0.64-0.24-1.17-0.3-3.06-0.3h-0.95v5.39h0.93z"/>
                <path d="m291.5 130.98 4 12 4-12h1.83v13.27h-1.13v-12.23l-4.12 12.23h-1.13l-4.14-12.23v12.23h-1.13v-13.27z"/>
                <path d="m307.05 130.98v7.88c0.02 2.39 0.06 2.75 0.5 3.36 0.52 0.78 1.59 1.23 2.86 1.23 1.43 0 2.57-0.56 3.04-1.49 0.3-0.58 0.32-0.91 0.34-3.1v-7.88h1.13v7.9c0 2.17-0.02 2.43-0.26 3.1-0.56 1.57-2.13 2.49-4.26 2.49-1.91 0-3.36-0.74-4.04-2.03-0.34-0.66-0.46-1.31-0.46-2.59v-8.87z"/>
                <path d="m320.67 130.98v12.27h5.65v0.99h-6.82v-13.27h1.17z"/>
                <path d="m334.75 130.88 4.6 13.37h-1.19l-1.29-3.76h-5.09l-1.31 3.76h-1.17l4.6-13.37zm-0.44 1.61-2.23 7h4.44z"/>
                <path d="m358.93 137.6c0 4.04-2.15 6.86-5.19 6.86-3.12 0-5.23-2.81-5.23-6.94 0-3.94 2.19-6.76 5.21-6.76 3.06 0 5.21 2.83 5.21 6.84zm-9.19-0.06c0 3.48 1.63 5.91 3.98 5.91 2.33 0 3.98-2.43 3.98-5.85 0-3.4-1.65-5.83-3.98-5.83-2.31 0-3.98 2.43-3.98 5.77z"/>
                <path d="m364.33 130.98 6.68 11.62v-11.62h1.05v13.27h-1.31l-6.6-11.58v11.58h-1.07v-13.27z"/>
                <path d="m383.38 136.89v0.99h-5.41v5.37h5.89v0.99h-7.02v-13.27h6.94v0.99h-5.81v4.91h5.41z"/>
                <path d="m400.86 130.98v0.99h-3.42v12.27h-1.13v-12.27h-3.44v-0.99z"/>
                <path d="m410.92 136.89v0.99h-5.41v5.37h5.89v0.99h-7.02v-13.27h6.94v0.99h-5.81v4.91h5.41z"/>
                <path d="m419.61 130.88 4.6 13.37h-1.19l-1.29-3.76h-5.09l-1.31 3.76h-1.17l4.6-13.37zm-0.44 1.61-2.23 7h4.44z"/>
                <path d="m429.55 130.98 4 12 4-12h1.83v13.27h-1.13v-12.23l-4.12 12.23h-1.13l-4.14-12.23v12.23h-1.13v-13.27z"/>
            </g>
    <defs>
        <linearGradient id="_Linear1" x2="1" gradientTransform="matrix(48,40.2,-40.2,48,8,11.9)" gradientUnits="userSpaceOnUse"><stop stop-color="#fff" offset="0"/><stop stop-color="#e7e8e6" offset=".1"/><stop stop-color="#cdd0d0" offset=".1"/><stop stop-color="#b5bbbd" offset=".2"/><stop stop-color="#a5acaf" offset=".2"/><stop stop-color="#9ba3a7" offset=".3"/><stop stop-color="#98a0a4" offset=".3"/><stop stop-color="#828a8f" offset=".4"/><stop stop-color="#667075" offset=".5"/><stop stop-color="#535c63" offset=".6"/><stop stop-color="#475158" offset=".7"/><stop stop-color="#434d54" offset=".8"/><stop stop-color="#475157" offset="1"/></linearGradient>
        <linearGradient id="_Linear2" x2="1" gradientTransform="matrix(45,37.8,-37.8,45,9.5,13.1)" gradientUnits="userSpaceOnUse"><stop stop-color="#0b1f2a" offset="0"/><stop stop-color="#333f47" offset=".2"/><stop stop-color="#777f84" offset=".5"/><stop stop-color="#81898d" offset=".5"/><stop stop-color="#b3b8b8" offset=".7"/><stop stop-color="#d2d5d3" offset=".8"/><stop stop-color="#dee0dd" offset=".8"/><stop stop-color="#fbfbfb" offset="1"/></linearGradient>
        <linearGradient id="_Linear3" x2="1" gradientTransform="matrix(-21.9 -60.2 60.2 -21.9 42.973 62.107)" gradientUnits="userSpaceOnUse"><stop stop-color="#e1e3e1" stop-opacity=".4" offset="0"/><stop stop-color="#c1c5c4" stop-opacity=".4" offset=".1"/><stop stop-color="#9ba1a2" stop-opacity=".4" offset=".3"/><stop stop-color="#7d8487" stop-opacity=".4" offset=".5"/><stop stop-color="#687074" stop-opacity="0" offset=".7"/><stop stop-color="#5b6469" stop-opacity="0" offset=".8"/><stop stop-color="#576065" stop-opacity="0" offset="1"/></linearGradient>
        <linearGradient id="_Linear4" x2="1" gradientTransform="matrix(27.6,47.8,-47.8,27.6,18.2,8.1)" gradientUnits="userSpaceOnUse"><stop stop-color="#e1e3e1" stop-opacity=".4" offset="0"/><stop stop-color="#c1c5c4" stop-opacity=".4" offset=".1"/><stop stop-color="#9ba1a2" stop-opacity=".4" offset=".3"/><stop stop-color="#7d8487" stop-opacity=".4" offset=".5"/><stop stop-color="#687074" stop-opacity="0" offset=".7"/><stop stop-color="#5b6469" stop-opacity="0" offset=".8"/><stop stop-color="#576065" stop-opacity="0" offset="1"/></linearGradient>
        <linearGradient id="_Linear5" x2="1" gradientTransform="matrix(-1.7,2.8,-2.8,-1.7,44.5,39.4)" gradientUnits="userSpaceOnUse"><stop stop-color="#27343c" offset="0"/><stop stop-color="#00111e" stop-opacity="0" offset="1"/></linearGradient>
        <linearGradient id="_Linear6" x2="1" gradientTransform="matrix(-2.8,-4.5,4.5,-2.8,39.6,29.1)" gradientUnits="userSpaceOnUse"><stop stop-color="#02131f" offset="0"/><stop stop-color="#02131f" offset=".1"/><stop stop-color="#02131f" stop-opacity="0" offset=".9"/><stop stop-color="#02131f" stop-opacity="0" offset="1"/></linearGradient>
        <linearGradient id="_Linear7" x2="1" gradientTransform="matrix(-4.2,1.2,-1.2,-4.2,32,36.4)" gradientUnits="userSpaceOnUse"><stop stop-color="#02131f" stop-opacity=".8" offset="0"/><stop stop-color="#02131f" stop-opacity=".8" offset=".2"/><stop stop-color="#02131f" stop-opacity="0" offset=".9"/><stop stop-color="#02131f" stop-opacity="0" offset="1"/></linearGradient>
        <linearGradient id="_Linear8" x2="1" gradientTransform="matrix(-.6 -1.5 1.5 -.6 20.8 41.9)" gradientUnits="userSpaceOnUse"><stop stop-color="#02131f" stop-opacity=".8" offset="0"/><stop stop-color="#02131f" stop-opacity=".8" offset=".1"/><stop stop-color="#02131f" stop-opacity="0" offset="1"/></linearGradient>
        <linearGradient id="_Linear9" x2="1" gradientTransform="matrix(-3.4 .4 -.4 -3.4 35.6 17.2)" gradientUnits="userSpaceOnUse"><stop stop-color="#02131f" offset="0"/><stop stop-color="#02131f" offset=".3"/><stop stop-color="#02131f" stop-opacity="0" offset=".8"/><stop stop-color="#02131f" stop-opacity="0" offset="1"/></linearGradient>
        <linearGradient id="_Linear10" x2="1" gradientTransform="matrix(-2.3 .3 -.3 -2.3 35.7 17.1)" gradientUnits="userSpaceOnUse"><stop stop-color="#27343c" offset="0"/><stop stop-color="#27343c" offset=".4"/><stop stop-color="#3b474e" stop-opacity="0" offset="1"/></linearGradient>
        <linearGradient id="_Linear11" x2="1" gradientTransform="matrix(27.9 16.1 -16.1 27.9 -.4 32.9)" gradientUnits="userSpaceOnUse"><stop stop-color="#24303a" stop-opacity="0" offset="0"/><stop stop-color="#25323b" stop-opacity="0" offset="0"/><stop stop-color="#27343c" offset=".1"/><stop stop-color="#27343c" offset="1"/></linearGradient>
        <linearGradient id="_Linear12" x2="1" gradientTransform="matrix(0,-4.8,4.8,0,32,37.4)" gradientUnits="userSpaceOnUse"><stop stop-color="#a5abaf" offset="0"/><stop stop-color="#a5abaf" offset=".3"/><stop stop-color="#a5abaf" stop-opacity="0" offset="1"/></linearGradient>
        <linearGradient id="_Linear13" x2="1" gradientTransform="matrix(0,61,-61,0,47.7,2.3)" gradientUnits="userSpaceOnUse"><stop stop-color="#dee0dd" offset="0"/><stop stop-color="#c5c9c7" offset="0"/><stop stop-color="#9ea4a5" offset="0"/><stop stop-color="#82898c" offset="0"/><stop stop-color="#71797d" offset="0"/><stop stop-color="#6b7378" offset="0"/><stop stop-color="#333f47" offset=".2"/><stop stop-color="#27343c" offset=".5"/><stop stop-color="#333f47" offset=".8"/><stop stop-color="#434d54" offset="1"/></linearGradient>
        <linearGradient id="_Linear14" x2="1" gradientTransform="matrix(2e-6 0 0 2e-6 32.1 .7)" gradientUnits="userSpaceOnUse"><stop stop-color="#dee0dd" offset="0"/><stop stop-color="#c5c9c7" offset="0"/><stop stop-color="#9ea4a5" offset="0"/><stop stop-color="#82898c" offset="0"/><stop stop-color="#71797d" offset="0"/><stop stop-color="#6b7378" offset="0"/><stop stop-color="#333f47" offset=".2"/><stop stop-color="#27343c" offset=".5"/><stop stop-color="#333f47" offset=".8"/><stop stop-color="#434d54" offset="1"/></linearGradient>
        <linearGradient id="_Linear15" x2="1" gradientTransform="matrix(-13.5,19.8,-19.8,-13.5,57.3,8.1)" gradientUnits="userSpaceOnUse"><stop stop-color="#27343c" offset="0"/><stop stop-color="#27343c" offset=".7"/><stop stop-color="#2b373f" offset=".7"/><stop stop-color="#36424a" offset=".7"/><stop stop-color="#49545b" offset=".7"/><stop stop-color="#646d73" stop-opacity="0" offset=".8"/><stop stop-color="#868d92" stop-opacity="0" offset=".8"/><stop stop-color="#b0b5b8" stop-opacity="0" offset=".8"/><stop stop-color="#e1e3e4" stop-opacity="0" offset=".8"/><stop stop-color="#fff" stop-opacity="0" offset=".8"/><stop stop-color="#fff" stop-opacity="0" offset="1"/></linearGradient>
    
        
        
    
            
            
        
                
                
            </defs>
</svg>
